<?xml version="1.0" encoding="iso-8859-1"?>
<!-- Generator: Adobe Illustrator 19.0.0, SVG Export Plug-In . SVG Version: 6.00 Build 0)  -->
<svg version="1.1" id="Capa_1" xmlns="http://www.w3.org/2000/svg" xmlns:xlink="http://www.w3.org/1999/xlink" x="0px" y="0px"
	 viewBox="0 0 377.903 377.903" style="enable-background:new 0 0 377.903 377.903;" xml:space="preserve">
<g>
	<g>
		<g>
			<path fill="#4eb8e7" d="M300.088,68.52c-9.2-9.2-18.4-16.8-28-23.2c-8-5.6-16-10-24-13.6c2.8-8.4,4.4-14.4,4.8-18.8c0.4-6.4-1.6-10.8-6-12.4
				c-4-1.2-8-0.4-12.8,3.2c-4.4,3.2-10.4,9.6-17.6,18.4c-58-11.6-114,15.6-145.2,50.8c-10.4,11.6-18,24-22.4,36.4v0.4
				c-4.4,12.8-5.6,25.6-2.8,37.2c4.8,19.2,20.4,35.2,49.6,43.6l-10.4,14.4c-14,2.8-26.8,10-36.4,21.6c-17.2,20.8-22,44.8-20,67.6
				c2.4,33.6,19.6,64.8,30.8,77.2c5.2,6,8.8,7.6,12.8,6l48-1.2c3.6,0,6.8-2.8,6.8-6.8c0-3.6-2.8-6.8-6.8-6.8l-37.2,0.4
				c3.2-6,8.8-13.6,20.8-21.6h0.4c16.8-10.8,35.6-23.6,47.2-42.8c0.4-0.4,0.8-0.8,0.8-1.2c8.4-14.8,10-32,6-47.2
				c-0.4-1.6-1.2-3.2-1.6-4.8l9.2-21.2c1.6,2.4,2.4,5.2,3.6,8.4c2.4,7.6,4.4,16.4,6,25.6c6.4,38,23.6,57.6,44.8,64
				c20,6,43.6-0.8,64.8-16c20.4-14.8,39.2-38,51.2-65.2C358.088,190.52,356.888,125.32,300.088,68.52z M237.288,20.12
				c2.7,9.1-52.4,125.6-52.4,125.6l-28.4-16.4l20.4-28.4l23.6-33.2C200.488,67.72,232.688,23.32,237.288,20.12z M160.888,85.32
				c-3.2-3.2-4.8-7.2-4.8-11.2s1.6-8,4.8-11.2c3.2-3.2,7.2-4.8,11.2-4.8s8,1.6,11.2,4.8c0.8,0.8,1.6,1.6,1.6,2.4l-17.2,24
				c-0.4-0.4-1.2-0.4-2-0.8C164.088,87.72,162.488,86.92,160.888,85.32z M59.688,143.72c-2-9.2-1.2-19.2,2.4-29.2v-0.4
				c4-10.4,10.4-21.6,19.6-31.6c27.2-30.8,74.8-54.4,124-46c-1.2,1.6-2.8,3.6-4.4,6l-8,10.8c0-0.4-0.4-0.4-0.4-0.4
				c-5.6-5.6-13.2-8.4-20.4-8.4c-7.6,0-15.2,3.2-20.8,8.8c-6,5.6-8.8,13.2-8.8,20.8c0,7.6,3.2,15.2,8.8,20.8c2.4,2.8,5.2,4.4,8.4,6
				l-55.6,77.6C77.288,172.12,63.688,159.32,59.688,143.72z M140.088,292.12v0.4c-10,16.4-27.6,28-43.2,38.4h-0.4
				c-17.2,11.2-23.6,22.8-27.2,30c-10-11.6-23.6-38.4-26-67.2c-1.6-19.6,2.4-40.4,16.8-57.6c7.6-9.2,17.6-14.8,28.8-16.8
				c15.7-3.3,28.4,2.8,32.8,5.2c11.6,6.8,19.2,17.6,23.2,30.4C148.088,266.92,146.888,280.52,140.088,292.12z M158.088,206.92
				l-12.4,22.4c-12.8-21.5-41.6-24.8-42.8-24.8l10-14l35.6-50l30.8,17.6L158.088,206.92z M323.688,236.52
				c-10.8,24.8-28,46-46.8,59.2c-17.6,12.8-36.8,18.8-52.8,14c-16.4-4.8-29.6-21.2-35.2-52.8c-1.6-10-4-19.2-6.8-28
				c-2.4-7.6-5.6-14.4-9.6-20c0,0,70.4-162,70.8-163.2c7.2,3.2,14.4,7.2,21.2,12c8.4,6,17.2,13.2,25.6,21.6
				C342.088,131.32,343.688,190.92,323.688,236.52z"/>
			<path fill="#4eb8e7" d="M200.488,363.72h-14.4c-3.6,0-6.8,2.8-6.8,6.8c0,3.6,2.8,6.8,6.8,6.8h14.4c3.6,0,6.8-2.8,6.8-6.8
				C207.288,366.92,204.488,363.72,200.488,363.72z"/>
			<path fill="#4eb8e7" d="M165.288,363.72h-24c-3.6,0-6.8,2.8-6.8,6.8c0,3.6,2.8,6.8,6.8,6.8h24c3.6,0,6.8-2.8,6.8-6.8
				C172.088,366.92,169.288,363.72,165.288,363.72z"/>
			<path fill="#4eb8e7" d="M256.088,74.52c-10,0-19.6,3.6-27.2,11.2l-0.4,0.4c-7.2,7.6-10.8,17.2-10.8,26.8c0,10,3.6,19.6,11.2,27.2
				c7.6,7.6,17.2,11.2,27.2,11.2s19.6-3.6,27.2-11.2l0.4-0.4c7.2-7.6,10.8-17.2,10.8-26.8c0-10-3.6-19.6-11.2-27.2
				C276.088,78.12,266.088,74.52,256.088,74.52z M280.488,113.32c0,6.4-2.4,12.4-6.8,17.2l-0.4,0.4c-4.4,4.8-10.8,7.2-17.2,7.2
				c-6,0-12.4-2.4-17.2-7.2c-4.8-4.8-7.2-11.2-7.2-17.6c0-6.4,2.4-12.4,6.8-17.2l0.4-0.4c4.8-4.8,11.2-7.2,17.6-7.2
				c6,0,12.4,2.4,17.2,7.2C278.488,100.52,280.888,106.52,280.488,113.32z"/>
			<path fill="#4eb8e7" d="M265.688,196.52c0,7.6,3.2,15.2,8.8,20.8c5.6,6,13.2,8.8,20.8,8.8s15.2-3.2,20.8-8.8c6-5.6,8.8-13.2,8.8-20.8
				c0-7.6-3.2-15.2-8.8-20.8c-6-5.6-13.6-8.4-20.8-8.8c-7.6,0-15.2,3.2-20.8,8.8C268.488,181.32,265.688,188.92,265.688,196.52z
				 M283.688,185.72c3.2-3.2,7.2-4.8,11.2-4.8s8,1.6,11.2,4.8c3.2,3.2,4.8,7.2,4.8,11.2s-1.6,8-4.8,11.2s-7.2,4.8-11.2,4.8
				s-8-1.6-11.2-4.8c-3.2-3.2-4.8-7.2-4.8-11.2S280.488,188.92,283.688,185.72z"/>
			<path fill="#4eb8e7" d="M274.888,245.72c-4.8-5.2-11.6-7.6-18-7.6c-6.4,0-12.8,2.4-18,7.6c-5.2,4.8-7.6,11.6-7.6,18c0,6.4,2.4,12.8,7.6,18
				c4.8,5.2,11.6,7.6,18,7.6c6.4,0,12.8-2.4,18-7.6c5.2-4.8,7.6-11.6,7.6-18c0-6.4-2.4-12.8-7.2-17.6
				C274.888,246.12,274.888,245.72,274.888,245.72z M264.888,272.12c-2.4,2.4-5.2,3.6-8.4,3.6s-6-1.2-8.4-3.6
				c-2.4-2.4-3.6-5.2-3.6-8.4c0-3.2,1.2-6,3.6-8.4c2.4-2.4,5.2-3.6,8.4-3.6c3.2,0,6,1.2,8.4,3.6l0.4,0.4c2,2.4,3.2,5.2,3.2,8
				C268.488,266.92,267.288,269.72,264.888,272.12z"/>
			<path fill="#4eb8e7" d="M123.288,130.52c5.2-4.8,7.6-11.6,7.6-18c0-6.4-2.4-12.8-7.6-18c-4.8-5.2-11.6-7.6-18-7.6c-6.4,0-13.2,2.4-18,7.6
				c-5.2,4.8-7.6,11.6-7.6,18c0,6.4,2.4,12.8,7.6,18c4.8,5.2,11.6,7.6,18,7.6C111.688,138.12,118.088,135.72,123.288,130.52z
				 M93.288,112.52c0-3.2,1.2-6,3.6-8.4c2.4-2.4,5.2-3.6,8.4-3.6s6,1.2,8.4,3.6c2.4,2.4,3.6,5.2,3.6,8.4c0,3.2-1.2,6-3.6,8.4
				c-2.4,2.4-5.2,3.6-8.4,3.6s-6-1.2-8.4-3.6C94.488,118.52,93.288,115.72,93.288,112.52z"/>
		</g>
	</g>
</g>
<g>
</g>
<g>
</g>
<g>
</g>
<g>
</g>
<g>
</g>
<g>
</g>
<g>
</g>
<g>
</g>
<g>
</g>
<g>
</g>
<g>
</g>
<g>
</g>
<g>
</g>
<g>
</g>
<g>
</g>
</svg>
