<svg width="1440" height="1024" viewBox="0 0 1440 1024" fill="none" xmlns="http://www.w3.org/2000/svg">
<g clip-path="url(#clip0)">
<rect width="1440" height="1024" fill="#010101"/>
<mask id="mask0" mask-type="alpha" maskUnits="userSpaceOnUse" x="-87" y="-71" width="1670" height="1167">
<rect x="-87" y="-71" width="1670" height="1167" rx="60" fill="#C4C4C4"/>
</mask>
<g mask="url(#mask0)">
<rect x="-14" y="-10" width="1490.53" height="1044.7" fill="url(#paint0_linear)"/>
<path opacity="0.45" d="M1296.86 1081.72C1402.27 1081.72 1487.72 996.266 1487.72 890.858C1487.72 785.45 1402.27 700 1296.86 700C1191.45 700 1106 785.45 1106 890.858C1106 996.266 1191.45 1081.72 1296.86 1081.72Z" fill="url(#paint1_linear)"/>
<path opacity="0.45" d="M141.803 738.049C247.21 738.049 332.66 652.599 332.66 547.192C332.66 441.784 247.21 356.334 141.803 356.334C36.3948 356.334 -49.0552 441.784 -49.0552 547.192C-49.0552 652.599 36.3948 738.049 141.803 738.049Z" fill="url(#paint2_linear)"/>
<g style="mix-blend-mode:overlay" opacity="0.69">
<rect x="1" y="-30" width="1437.3" height="1084.63" fill="#40384F"/>
</g>
</g>
<g opacity="0.15">
<path d="M1065.03 291.676C1065.96 291.693 1066.74 290.92 1066.75 289.949C1066.77 288.978 1066.03 288.177 1065.09 288.16C1064.16 288.143 1063.39 288.917 1063.37 289.887C1063.35 290.858 1064.1 291.659 1065.03 291.676Z" fill="white" fill-opacity="0.9"/>
<path d="M1080.27 291.953C1081.2 291.97 1081.97 291.196 1081.99 290.226C1082.01 289.255 1081.27 288.454 1080.33 288.437C1079.4 288.42 1078.63 289.193 1078.61 290.164C1078.59 291.135 1079.33 291.936 1080.27 291.953Z" fill="white" fill-opacity="0.9"/>
<path d="M1095.5 292.229C1096.44 292.246 1097.21 291.473 1097.23 290.502C1097.24 289.531 1096.5 288.73 1095.57 288.713C1094.63 288.696 1093.86 289.47 1093.84 290.441C1093.83 291.412 1094.57 292.213 1095.5 292.229Z" fill="white" fill-opacity="0.9"/>
<path d="M1110.74 292.506C1111.67 292.523 1112.44 291.75 1112.46 290.779C1112.48 289.808 1111.74 289.007 1110.8 288.99C1109.87 288.973 1109.1 289.747 1109.08 290.717C1109.06 291.688 1109.81 292.489 1110.74 292.506Z" fill="white" fill-opacity="0.9"/>
<path d="M1127.7 291.056C1127.68 292.026 1126.91 292.801 1125.97 292.784C1125.04 292.767 1124.3 291.965 1124.32 290.995C1124.33 290.025 1125.11 289.25 1126.04 289.267C1126.97 289.284 1127.72 290.086 1127.7 291.056Z" fill="white" fill-opacity="0.9"/>
<path d="M1141.2 293.06C1142.14 293.077 1142.91 292.304 1142.93 291.333C1142.94 290.362 1142.2 289.561 1141.27 289.544C1140.33 289.527 1139.56 290.3 1139.54 291.271C1139.53 292.242 1140.27 293.043 1141.2 293.06Z" fill="white" fill-opacity="0.9"/>
<path d="M1156.44 293.337C1157.37 293.354 1158.14 292.58 1158.16 291.609C1158.18 290.638 1157.44 289.837 1156.5 289.82C1155.57 289.803 1154.8 290.577 1154.78 291.548C1154.76 292.519 1155.51 293.32 1156.44 293.337Z" fill="white" fill-opacity="0.9"/>
<path d="M1171.67 293.614C1172.61 293.631 1173.38 292.857 1173.4 291.887C1173.42 290.916 1172.67 290.115 1171.74 290.098C1170.8 290.081 1170.03 290.854 1170.02 291.825C1170 292.796 1170.74 293.597 1171.67 293.614Z" fill="white" fill-opacity="0.9"/>
<path d="M1186.91 293.891C1187.84 293.908 1188.62 293.134 1188.63 292.163C1188.65 291.192 1187.91 290.391 1186.97 290.374C1186.04 290.358 1185.27 291.131 1185.25 292.102C1185.23 293.073 1185.98 293.874 1186.91 293.891Z" fill="white" fill-opacity="0.9"/>
<path d="M1202.15 294.167C1203.08 294.184 1203.85 293.411 1203.87 292.44C1203.89 291.469 1203.14 290.668 1202.21 290.651C1201.28 290.634 1200.51 291.408 1200.49 292.379C1200.47 293.35 1201.21 294.15 1202.15 294.167Z" fill="white" fill-opacity="0.9"/>
<path d="M1217.38 294.445C1218.32 294.462 1219.09 293.688 1219.11 292.717C1219.12 291.746 1218.38 290.946 1217.45 290.929C1216.51 290.912 1215.74 291.685 1215.72 292.656C1215.71 293.627 1216.45 294.428 1217.38 294.445Z" fill="white" fill-opacity="0.9"/>
<path d="M1064.78 305.761C1065.71 305.778 1066.48 305.004 1066.5 304.033C1066.52 303.062 1065.77 302.262 1064.84 302.245C1063.91 302.228 1063.13 303.001 1063.12 303.972C1063.1 304.943 1063.84 305.744 1064.78 305.761Z" fill="white" fill-opacity="0.9"/>
<path d="M1080.01 306.033C1080.95 306.05 1081.72 305.277 1081.73 304.306C1081.75 303.335 1081.01 302.534 1080.08 302.517C1079.14 302.5 1078.37 303.274 1078.35 304.245C1078.33 305.216 1079.08 306.016 1080.01 306.033Z" fill="white" fill-opacity="0.9"/>
<path d="M1095.25 306.31C1096.18 306.327 1096.95 305.554 1096.97 304.583C1096.99 303.612 1096.25 302.811 1095.31 302.794C1094.38 302.777 1093.61 303.55 1093.59 304.521C1093.57 305.492 1094.31 306.293 1095.25 306.31Z" fill="white" fill-opacity="0.9"/>
<path d="M1110.48 306.587C1111.42 306.604 1112.19 305.831 1112.21 304.86C1112.22 303.889 1111.48 303.088 1110.55 303.071C1109.61 303.054 1108.84 303.827 1108.82 304.798C1108.81 305.769 1109.55 306.57 1110.48 306.587Z" fill="white" fill-opacity="0.9"/>
<path d="M1127.44 305.137C1127.42 306.107 1126.65 306.881 1125.72 306.864C1124.79 306.847 1124.04 306.046 1124.06 305.075C1124.08 304.105 1124.85 303.331 1125.78 303.348C1126.72 303.365 1127.46 304.167 1127.44 305.137Z" fill="white" fill-opacity="0.9"/>
<path d="M1140.95 307.14C1141.88 307.157 1142.65 306.384 1142.67 305.413C1142.69 304.442 1141.95 303.641 1141.01 303.624C1140.08 303.607 1139.31 304.381 1139.29 305.352C1139.27 306.323 1140.01 307.123 1140.95 307.14Z" fill="white" fill-opacity="0.9"/>
<path d="M1156.18 307.418C1157.12 307.435 1157.89 306.662 1157.91 305.691C1157.92 304.72 1157.18 303.919 1156.25 303.902C1155.31 303.885 1154.54 304.658 1154.52 305.629C1154.51 306.6 1155.25 307.401 1156.18 307.418Z" fill="white" fill-opacity="0.9"/>
<path d="M1171.42 307.695C1172.35 307.711 1173.12 306.938 1173.14 305.967C1173.16 304.996 1172.42 304.195 1171.48 304.178C1170.55 304.161 1169.78 304.935 1169.76 305.906C1169.74 306.877 1170.49 307.678 1171.42 307.695Z" fill="white" fill-opacity="0.9"/>
<path d="M1186.66 307.971C1187.59 307.988 1188.36 307.215 1188.38 306.244C1188.4 305.273 1187.65 304.472 1186.72 304.455C1185.79 304.438 1185.01 305.212 1185 306.183C1184.98 307.153 1185.72 307.954 1186.66 307.971Z" fill="white" fill-opacity="0.9"/>
<path d="M1201.89 308.248C1202.83 308.265 1203.6 307.492 1203.61 306.521C1203.63 305.55 1202.89 304.749 1201.96 304.732C1201.02 304.715 1200.25 305.488 1200.23 306.459C1200.21 307.43 1200.96 308.231 1201.89 308.248Z" fill="white" fill-opacity="0.9"/>
<path d="M1217.13 308.525C1218.06 308.542 1218.83 307.768 1218.85 306.798C1218.87 305.827 1218.13 305.026 1217.19 305.009C1216.26 304.992 1215.49 305.765 1215.47 306.736C1215.45 307.707 1216.19 308.508 1217.13 308.525Z" fill="white" fill-opacity="0.9"/>
<path d="M1064.52 319.83C1065.45 319.847 1066.22 319.074 1066.24 318.103C1066.26 317.132 1065.52 316.331 1064.58 316.314C1063.65 316.297 1062.88 317.071 1062.86 318.042C1062.84 319.013 1063.59 319.813 1064.52 319.83Z" fill="white" fill-opacity="0.9"/>
<path d="M1079.76 320.106C1080.69 320.123 1081.46 319.35 1081.48 318.379C1081.5 317.408 1080.75 316.607 1079.82 316.59C1078.89 316.573 1078.11 317.347 1078.1 318.318C1078.08 319.289 1078.82 320.09 1079.76 320.106Z" fill="white" fill-opacity="0.9"/>
<path d="M1094.99 320.383C1095.93 320.4 1096.7 319.627 1096.72 318.656C1096.73 317.685 1095.99 316.884 1095.06 316.867C1094.12 316.85 1093.35 317.623 1093.33 318.594C1093.32 319.565 1094.06 320.366 1094.99 320.383Z" fill="white" fill-opacity="0.9"/>
<path d="M1110.23 320.66C1111.16 320.677 1111.93 319.903 1111.95 318.933C1111.97 317.962 1111.23 317.161 1110.29 317.144C1109.36 317.127 1108.59 317.9 1108.57 318.871C1108.55 319.842 1109.29 320.643 1110.23 320.66Z" fill="white" fill-opacity="0.9"/>
<path d="M1127.19 319.21C1127.17 320.18 1126.4 320.954 1125.46 320.937C1124.53 320.92 1123.79 320.119 1123.8 319.148C1123.82 318.178 1124.59 317.404 1125.53 317.421C1126.46 317.438 1127.2 318.24 1127.19 319.21Z" fill="white" fill-opacity="0.9"/>
<path d="M1140.69 321.214C1141.63 321.231 1142.4 320.457 1142.42 319.486C1142.43 318.515 1141.69 317.714 1140.76 317.697C1139.82 317.68 1139.05 318.454 1139.03 319.425C1139.02 320.396 1139.76 321.197 1140.69 321.214Z" fill="white" fill-opacity="0.9"/>
<path d="M1155.93 321.491C1156.86 321.508 1157.63 320.734 1157.65 319.763C1157.67 318.793 1156.93 317.992 1155.99 317.975C1155.06 317.958 1154.29 318.731 1154.27 319.702C1154.25 320.673 1154.99 321.474 1155.93 321.491Z" fill="white" fill-opacity="0.9"/>
<path d="M1171.16 321.767C1172.1 321.784 1172.87 321.011 1172.89 320.04C1172.9 319.069 1172.16 318.268 1171.23 318.251C1170.29 318.234 1169.52 319.008 1169.5 319.979C1169.49 320.95 1170.23 321.751 1171.16 321.767Z" fill="white" fill-opacity="0.9"/>
<path d="M1186.4 322.044C1187.33 322.061 1188.11 321.288 1188.12 320.317C1188.14 319.346 1187.4 318.545 1186.46 318.528C1185.53 318.511 1184.76 319.285 1184.74 320.255C1184.72 321.226 1185.47 322.027 1186.4 322.044Z" fill="white" fill-opacity="0.9"/>
<path d="M1201.64 322.321C1202.57 322.338 1203.34 321.565 1203.36 320.594C1203.38 319.623 1202.63 318.822 1201.7 318.805C1200.77 318.788 1199.99 319.561 1199.98 320.532C1199.96 321.503 1200.7 322.304 1201.64 322.321Z" fill="white" fill-opacity="0.9"/>
<path d="M1216.87 322.598C1217.81 322.615 1218.58 321.842 1218.59 320.871C1218.61 319.9 1217.87 319.099 1216.94 319.082C1216 319.065 1215.23 319.838 1215.21 320.809C1215.2 321.78 1215.94 322.581 1216.87 322.598Z" fill="white" fill-opacity="0.9"/>
<path d="M1065.99 332.188C1065.97 333.158 1065.2 333.932 1064.26 333.915C1063.33 333.898 1062.59 333.096 1062.6 332.126C1062.62 331.156 1063.39 330.382 1064.33 330.399C1065.26 330.416 1066 331.217 1065.99 332.188Z" fill="white" fill-opacity="0.9"/>
<path d="M1081.22 332.461C1081.2 333.431 1080.43 334.205 1079.5 334.188C1078.57 334.171 1077.82 333.37 1077.84 332.4C1077.86 331.429 1078.63 330.655 1079.56 330.672C1080.5 330.689 1081.24 331.491 1081.22 332.461Z" fill="white" fill-opacity="0.9"/>
<path d="M1096.46 332.737C1096.44 333.707 1095.67 334.481 1094.74 334.464C1093.8 334.447 1093.06 333.646 1093.08 332.676C1093.09 331.705 1093.87 330.931 1094.8 330.948C1095.73 330.965 1096.48 331.767 1096.46 332.737Z" fill="white" fill-opacity="0.9"/>
<path d="M1111.69 333.014C1111.68 333.985 1110.9 334.759 1109.97 334.742C1109.04 334.725 1108.29 333.923 1108.31 332.953C1108.33 331.983 1109.1 331.209 1110.03 331.226C1110.97 331.243 1111.71 332.044 1111.69 333.014Z" fill="white" fill-opacity="0.9"/>
<path d="M1126.93 333.291C1126.91 334.261 1126.14 335.036 1125.21 335.019C1124.27 335.002 1123.53 334.2 1123.55 333.23C1123.57 332.26 1124.34 331.485 1125.27 331.502C1126.2 331.519 1126.95 332.321 1126.93 333.291Z" fill="white" fill-opacity="0.9"/>
<path d="M1142.17 333.568C1142.15 334.538 1141.38 335.312 1140.44 335.295C1139.51 335.278 1138.77 334.477 1138.78 333.507C1138.8 332.536 1139.57 331.762 1140.51 331.779C1141.43 331.796 1142.18 332.598 1142.17 333.568Z" fill="white" fill-opacity="0.9"/>
<path d="M1157.39 333.845C1157.38 334.815 1156.6 335.589 1155.67 335.572C1154.74 335.555 1153.99 334.754 1154.01 333.783C1154.03 332.813 1154.8 332.039 1155.74 332.056C1156.67 332.073 1157.41 332.875 1157.39 333.845Z" fill="white" fill-opacity="0.9"/>
<path d="M1172.63 334.122C1172.61 335.092 1171.84 335.866 1170.91 335.849C1169.97 335.832 1169.23 335.03 1169.25 334.06C1169.27 333.09 1170.04 332.316 1170.97 332.333C1171.9 332.35 1172.65 333.151 1172.63 334.122Z" fill="white" fill-opacity="0.9"/>
<path d="M1187.87 334.398C1187.85 335.369 1187.08 336.143 1186.14 336.126C1185.21 336.109 1184.47 335.307 1184.48 334.337C1184.5 333.367 1185.27 332.593 1186.21 332.609C1187.14 332.626 1187.88 333.428 1187.87 334.398Z" fill="white" fill-opacity="0.9"/>
<path d="M1203.1 334.675C1203.08 335.645 1202.31 336.419 1201.38 336.402C1200.45 336.385 1199.7 335.584 1199.72 334.614C1199.74 333.643 1200.51 332.869 1201.44 332.886C1202.38 332.903 1203.12 333.705 1203.1 334.675Z" fill="white" fill-opacity="0.9"/>
<path d="M1218.34 334.952C1218.32 335.923 1217.55 336.697 1216.62 336.68C1215.68 336.663 1214.94 335.861 1214.96 334.891C1214.97 333.921 1215.75 333.147 1216.68 333.164C1217.61 333.181 1218.36 333.982 1218.34 334.952Z" fill="white" fill-opacity="0.9"/>
<path d="M1065.73 346.266C1065.71 347.236 1064.94 348.01 1064.01 347.993C1063.07 347.976 1062.33 347.175 1062.35 346.204C1062.37 345.234 1063.14 344.46 1064.07 344.477C1065 344.486 1065.75 345.287 1065.73 346.266Z" fill="white" fill-opacity="0.9"/>
<path d="M1080.97 346.542C1080.95 347.512 1080.18 348.286 1079.24 348.269C1078.31 348.252 1077.57 347.451 1077.58 346.481C1077.6 345.51 1078.37 344.736 1079.31 344.753C1080.24 344.762 1080.98 345.563 1080.97 346.542Z" fill="white" fill-opacity="0.9"/>
<path d="M1096.2 346.819C1096.18 347.789 1095.41 348.563 1094.48 348.546C1093.55 348.529 1092.8 347.728 1092.82 346.758C1092.84 345.787 1093.61 345.013 1094.54 345.03C1095.48 345.039 1096.22 345.841 1096.2 346.819Z" fill="white" fill-opacity="0.9"/>
<path d="M1111.44 347.095C1111.42 348.066 1110.65 348.84 1109.72 348.823C1108.78 348.806 1108.04 348.004 1108.06 347.034C1108.08 346.064 1108.85 345.29 1109.78 345.307C1110.71 345.315 1111.46 346.117 1111.44 347.095Z" fill="white" fill-opacity="0.9"/>
<path d="M1126.67 347.373C1126.66 348.343 1125.89 349.117 1124.95 349.1C1124.02 349.083 1123.28 348.281 1123.29 347.311C1123.31 346.341 1124.08 345.567 1125.02 345.584C1125.95 345.593 1126.69 346.394 1126.67 347.373Z" fill="white" fill-opacity="0.9"/>
<path d="M1141.91 347.649C1141.89 348.62 1141.12 349.394 1140.19 349.377C1139.25 349.36 1138.51 348.558 1138.53 347.588C1138.55 346.618 1139.32 345.844 1140.25 345.86C1141.18 345.869 1141.93 346.671 1141.91 347.649Z" fill="white" fill-opacity="0.9"/>
<path d="M1157.14 347.926C1157.12 348.896 1156.35 349.67 1155.42 349.653C1154.48 349.636 1153.74 348.835 1153.76 347.864C1153.77 346.894 1154.55 346.12 1155.48 346.137C1156.41 346.146 1157.16 346.947 1157.14 347.926Z" fill="white" fill-opacity="0.9"/>
<path d="M1172.37 348.203C1172.36 349.173 1171.58 349.947 1170.65 349.93C1169.72 349.913 1168.97 349.112 1168.99 348.141C1169.01 347.171 1169.78 346.397 1170.72 346.414C1171.65 346.431 1172.39 347.224 1172.37 348.203Z" fill="white" fill-opacity="0.9"/>
<path d="M1187.61 348.48C1187.59 349.45 1186.82 350.224 1185.89 350.207C1184.95 350.19 1184.21 349.389 1184.23 348.418C1184.25 347.448 1185.02 346.674 1185.95 346.691C1186.88 346.7 1187.63 347.501 1187.61 348.48Z" fill="white" fill-opacity="0.9"/>
<path d="M1202.85 348.757C1202.83 349.727 1202.06 350.501 1201.12 350.484C1200.19 350.467 1199.45 349.665 1199.46 348.695C1199.48 347.725 1200.25 346.951 1201.19 346.968C1202.12 346.976 1202.86 347.778 1202.85 348.757Z" fill="white" fill-opacity="0.9"/>
<path d="M1218.08 349.034C1218.06 350.004 1217.29 350.778 1216.36 350.761C1215.43 350.744 1214.68 349.943 1214.7 348.972C1214.72 348.002 1215.49 347.228 1216.42 347.245C1217.36 347.254 1218.1 348.055 1218.08 349.034Z" fill="white" fill-opacity="0.9"/>
<path d="M1063.75 362.066C1064.69 362.083 1065.46 361.309 1065.48 360.338C1065.49 359.367 1064.75 358.567 1063.82 358.55C1062.88 358.533 1062.11 359.306 1062.09 360.277C1062.08 361.248 1062.82 362.049 1063.75 362.066Z" fill="white" fill-opacity="0.9"/>
<path d="M1078.99 362.341C1079.92 362.358 1080.69 361.585 1080.71 360.614C1080.73 359.643 1079.99 358.842 1079.05 358.825C1078.12 358.808 1077.35 359.582 1077.33 360.553C1077.31 361.524 1078.05 362.324 1078.99 362.341Z" fill="white" fill-opacity="0.9"/>
<path d="M1094.22 362.618C1095.16 362.635 1095.93 361.862 1095.95 360.891C1095.97 359.92 1095.22 359.119 1094.29 359.102C1093.35 359.085 1092.58 359.858 1092.57 360.829C1092.55 361.8 1093.29 362.601 1094.22 362.618Z" fill="white" fill-opacity="0.9"/>
<path d="M1109.46 362.895C1110.39 362.912 1111.17 362.139 1111.18 361.168C1111.2 360.197 1110.46 359.396 1109.52 359.379C1108.59 359.362 1107.82 360.135 1107.8 361.106C1107.78 362.077 1108.53 362.878 1109.46 362.895Z" fill="white" fill-opacity="0.9"/>
<path d="M1126.42 361.445C1126.4 362.415 1125.63 363.189 1124.7 363.172C1123.76 363.155 1123.02 362.354 1123.04 361.383C1123.06 360.413 1123.83 359.639 1124.76 359.656C1125.69 359.673 1126.44 360.475 1126.42 361.445Z" fill="white" fill-opacity="0.9"/>
<path d="M1139.92 363.449C1140.86 363.466 1141.63 362.692 1141.65 361.721C1141.67 360.75 1140.92 359.949 1139.99 359.932C1139.05 359.915 1138.28 360.689 1138.27 361.66C1138.25 362.631 1138.99 363.432 1139.92 363.449Z" fill="white" fill-opacity="0.9"/>
<path d="M1155.16 363.726C1156.09 363.743 1156.87 362.969 1156.88 361.998C1156.9 361.027 1156.16 360.227 1155.22 360.21C1154.29 360.193 1153.52 360.966 1153.5 361.937C1153.48 362.908 1154.23 363.709 1155.16 363.726Z" fill="white" fill-opacity="0.9"/>
<path d="M1170.4 364.003C1171.33 364.019 1172.1 363.246 1172.12 362.275C1172.14 361.304 1171.39 360.503 1170.46 360.486C1169.53 360.469 1168.75 361.243 1168.74 362.214C1168.72 363.185 1169.46 363.986 1170.4 364.003Z" fill="white" fill-opacity="0.9"/>
<path d="M1185.63 364.279C1186.57 364.296 1187.34 363.523 1187.36 362.552C1187.37 361.581 1186.63 360.78 1185.7 360.763C1184.76 360.746 1183.99 361.52 1183.97 362.491C1183.96 363.461 1184.7 364.262 1185.63 364.279Z" fill="white" fill-opacity="0.9"/>
<path d="M1200.87 364.556C1201.8 364.573 1202.57 363.8 1202.59 362.829C1202.61 361.858 1201.87 361.057 1200.93 361.04C1200 361.023 1199.23 361.796 1199.21 362.767C1199.19 363.738 1199.93 364.539 1200.87 364.556Z" fill="white" fill-opacity="0.9"/>
<path d="M1216.1 364.833C1217.04 364.85 1217.81 364.077 1217.83 363.106C1217.84 362.135 1217.1 361.334 1216.17 361.317C1215.23 361.3 1214.46 362.073 1214.44 363.044C1214.43 364.015 1215.17 364.816 1216.1 364.833Z" fill="white" fill-opacity="0.9"/>
<path d="M1063.5 376.147C1064.43 376.164 1065.2 375.39 1065.22 374.419C1065.24 373.448 1064.49 372.648 1063.56 372.631C1062.63 372.614 1061.86 373.387 1061.84 374.358C1061.82 375.329 1062.56 376.13 1063.5 376.147Z" fill="white" fill-opacity="0.9"/>
<path d="M1078.73 376.423C1079.67 376.44 1080.44 375.667 1080.46 374.696C1080.47 373.725 1079.73 372.924 1078.8 372.907C1077.86 372.89 1077.09 373.664 1077.07 374.635C1077.06 375.605 1077.8 376.406 1078.73 376.423Z" fill="white" fill-opacity="0.9"/>
<path d="M1093.97 376.699C1094.9 376.716 1095.67 375.943 1095.69 374.972C1095.71 374.001 1094.97 373.2 1094.03 373.183C1093.1 373.166 1092.33 373.939 1092.31 374.91C1092.29 375.881 1093.03 376.682 1093.97 376.699Z" fill="white" fill-opacity="0.9"/>
<path d="M1109.2 376.977C1110.14 376.994 1110.91 376.22 1110.93 375.249C1110.95 374.278 1110.2 373.478 1109.27 373.461C1108.33 373.444 1107.56 374.217 1107.55 375.188C1107.53 376.159 1108.27 376.96 1109.2 376.977Z" fill="white" fill-opacity="0.9"/>
<path d="M1126.16 375.526C1126.15 376.496 1125.37 377.27 1124.44 377.253C1123.51 377.237 1122.76 376.435 1122.78 375.465C1122.8 374.494 1123.57 373.72 1124.5 373.737C1125.44 373.754 1126.18 374.556 1126.16 375.526Z" fill="white" fill-opacity="0.9"/>
<path d="M1139.67 377.53C1140.6 377.547 1141.37 376.774 1141.39 375.803C1141.41 374.832 1140.67 374.031 1139.73 374.014C1138.8 373.997 1138.03 374.77 1138.01 375.741C1137.99 376.712 1138.73 377.513 1139.67 377.53Z" fill="white" fill-opacity="0.9"/>
<path d="M1154.9 377.807C1155.84 377.824 1156.61 377.051 1156.63 376.08C1156.65 375.109 1155.9 374.308 1154.97 374.291C1154.03 374.274 1153.26 375.047 1153.25 376.018C1153.23 376.989 1153.97 377.79 1154.9 377.807Z" fill="white" fill-opacity="0.9"/>
<path d="M1170.14 378.084C1171.07 378.101 1171.85 377.327 1171.86 376.356C1171.88 375.385 1171.14 374.585 1170.2 374.568C1169.27 374.551 1168.5 375.324 1168.48 376.295C1168.46 377.266 1169.21 378.067 1170.14 378.084Z" fill="white" fill-opacity="0.9"/>
<path d="M1185.38 378.361C1186.31 378.378 1187.08 377.604 1187.1 376.633C1187.12 375.662 1186.37 374.861 1185.44 374.844C1184.51 374.827 1183.74 375.601 1183.72 376.572C1183.7 377.543 1184.44 378.344 1185.38 378.361Z" fill="white" fill-opacity="0.9"/>
<path d="M1200.61 378.638C1201.55 378.655 1202.32 377.881 1202.34 376.911C1202.35 375.94 1201.61 375.139 1200.68 375.122C1199.74 375.105 1198.97 375.878 1198.95 376.849C1198.94 377.82 1199.68 378.621 1200.61 378.638Z" fill="white" fill-opacity="0.9"/>
<path d="M1215.85 378.914C1216.78 378.931 1217.55 378.158 1217.57 377.187C1217.59 376.216 1216.85 375.415 1215.91 375.398C1214.98 375.381 1214.21 376.155 1214.19 377.126C1214.17 378.097 1214.91 378.898 1215.85 378.914Z" fill="white" fill-opacity="0.9"/>
<path d="M1064.96 388.501C1064.95 389.471 1064.17 390.245 1063.24 390.228C1062.31 390.212 1061.56 389.41 1061.58 388.44C1061.6 387.469 1062.37 386.695 1063.3 386.712C1064.24 386.721 1064.98 387.523 1064.96 388.501Z" fill="white" fill-opacity="0.9"/>
<path d="M1080.2 388.777C1080.18 389.747 1079.41 390.521 1078.48 390.504C1077.54 390.487 1076.8 389.686 1076.82 388.715C1076.84 387.745 1077.61 386.971 1078.54 386.988C1079.47 386.997 1080.22 387.798 1080.2 388.777Z" fill="white" fill-opacity="0.9"/>
<path d="M1095.44 389.053C1095.42 390.024 1094.65 390.798 1093.71 390.781C1092.78 390.764 1092.04 389.962 1092.05 388.992C1092.07 388.022 1092.84 387.248 1093.78 387.265C1094.71 387.273 1095.45 388.075 1095.44 389.053Z" fill="white" fill-opacity="0.9"/>
<path d="M1110.67 389.33C1110.65 390.3 1109.88 391.074 1108.95 391.057C1108.02 391.041 1107.27 390.239 1107.29 389.269C1107.31 388.298 1108.08 387.524 1109.01 387.541C1109.95 387.55 1110.69 388.352 1110.67 389.33Z" fill="white" fill-opacity="0.9"/>
<path d="M1125.91 389.607C1125.89 390.578 1125.12 391.352 1124.18 391.335C1123.25 391.318 1122.51 390.516 1122.52 389.546C1122.54 388.576 1123.31 387.802 1124.25 387.819C1125.18 387.827 1125.92 388.629 1125.91 389.607Z" fill="white" fill-opacity="0.9"/>
<path d="M1141.14 389.884C1141.13 390.854 1140.35 391.629 1139.42 391.612C1138.49 391.595 1137.74 390.793 1137.76 389.823C1137.78 388.853 1138.55 388.078 1139.48 388.095C1140.41 388.104 1141.16 388.906 1141.14 389.884Z" fill="white" fill-opacity="0.9"/>
<path d="M1156.37 390.161C1156.35 391.131 1155.58 391.905 1154.65 391.888C1153.72 391.871 1152.97 391.069 1152.99 390.099C1153.01 389.129 1153.78 388.355 1154.71 388.372C1155.65 388.38 1156.39 389.182 1156.37 390.161Z" fill="white" fill-opacity="0.9"/>
<path d="M1171.61 390.438C1171.59 391.408 1170.82 392.182 1169.88 392.165C1168.95 392.148 1168.21 391.346 1168.22 390.376C1168.24 389.406 1169.01 388.632 1169.95 388.649C1170.88 388.666 1171.62 389.459 1171.61 390.438Z" fill="white" fill-opacity="0.9"/>
<path d="M1186.84 390.715C1186.83 391.685 1186.05 392.459 1185.12 392.442C1184.19 392.425 1183.44 391.623 1183.46 390.653C1183.48 389.683 1184.25 388.909 1185.18 388.926C1186.12 388.934 1186.86 389.736 1186.84 390.715Z" fill="white" fill-opacity="0.9"/>
<path d="M1202.08 390.991C1202.06 391.962 1201.29 392.736 1200.36 392.719C1199.42 392.702 1198.68 391.9 1198.7 390.93C1198.72 389.96 1199.49 389.186 1200.42 389.203C1201.35 389.211 1202.1 390.013 1202.08 390.991Z" fill="white" fill-opacity="0.9"/>
<path d="M1217.32 391.269C1217.3 392.239 1216.53 393.013 1215.59 392.996C1214.66 392.979 1213.92 392.177 1213.93 391.207C1213.95 390.237 1214.72 389.463 1215.66 389.48C1216.59 389.488 1217.33 390.29 1217.32 391.269Z" fill="white" fill-opacity="0.9"/>
<path d="M1064.71 402.574C1064.69 403.544 1063.92 404.318 1062.98 404.301C1062.05 404.284 1061.31 403.483 1061.33 402.513C1061.34 401.542 1062.12 400.768 1063.05 400.785C1063.98 400.802 1064.73 401.604 1064.71 402.574Z" fill="white" fill-opacity="0.9"/>
<path d="M1079.94 402.85C1079.93 403.82 1079.15 404.594 1078.22 404.577C1077.29 404.56 1076.54 403.759 1076.56 402.788C1076.58 401.818 1077.35 401.044 1078.28 401.061C1079.22 401.078 1079.96 401.88 1079.94 402.85Z" fill="white" fill-opacity="0.9"/>
<path d="M1095.18 403.127C1095.16 404.097 1094.39 404.871 1093.46 404.854C1092.52 404.837 1091.78 404.036 1091.8 403.066C1091.81 402.095 1092.59 401.321 1093.52 401.338C1094.45 401.355 1095.2 402.157 1095.18 403.127Z" fill="white" fill-opacity="0.9"/>
<path d="M1110.42 403.403C1110.4 404.374 1109.63 405.148 1108.69 405.131C1107.76 405.114 1107.02 404.312 1107.03 403.342C1107.05 402.372 1107.82 401.598 1108.76 401.615C1109.69 401.632 1110.43 402.433 1110.42 403.403Z" fill="white" fill-opacity="0.9"/>
<path d="M1125.65 403.681C1125.63 404.651 1124.86 405.425 1123.93 405.408C1122.99 405.391 1122.25 404.59 1122.27 403.619C1122.29 402.649 1123.06 401.875 1123.99 401.892C1124.93 401.909 1125.67 402.71 1125.65 403.681Z" fill="white" fill-opacity="0.9"/>
<path d="M1140.89 403.958C1140.87 404.928 1140.1 405.702 1139.16 405.685C1138.23 405.668 1137.49 404.866 1137.51 403.896C1137.52 402.926 1138.29 402.152 1139.23 402.169C1140.15 402.186 1140.91 402.987 1140.89 403.958Z" fill="white" fill-opacity="0.9"/>
<path d="M1156.11 404.234C1156.1 405.204 1155.33 405.979 1154.39 405.962C1153.46 405.945 1152.72 405.143 1152.73 404.173C1152.75 403.203 1153.52 402.428 1154.46 402.445C1155.39 402.462 1156.13 403.264 1156.11 404.234Z" fill="white" fill-opacity="0.9"/>
<path d="M1171.35 404.511C1171.33 405.481 1170.56 406.255 1169.63 406.238C1168.69 406.221 1167.95 405.42 1167.97 404.45C1167.99 403.479 1168.76 402.705 1169.69 402.722C1170.63 402.739 1171.37 403.541 1171.35 404.511Z" fill="white" fill-opacity="0.9"/>
<path d="M1186.59 404.788C1186.57 405.758 1185.8 406.532 1184.86 406.515C1183.93 406.498 1183.19 405.697 1183.21 404.726C1183.22 403.756 1184 402.982 1184.93 402.999C1185.86 403.016 1186.61 403.818 1186.59 404.788Z" fill="white" fill-opacity="0.9"/>
<path d="M1201.82 405.065C1201.81 406.035 1201.03 406.809 1200.1 406.792C1199.17 406.775 1198.42 405.973 1198.44 405.003C1198.46 404.033 1199.23 403.259 1200.16 403.276C1201.1 403.293 1201.84 404.094 1201.82 405.065Z" fill="white" fill-opacity="0.9"/>
<path d="M1217.06 405.341C1217.04 406.312 1216.27 407.086 1215.34 407.069C1214.4 407.052 1213.66 406.25 1213.68 405.28C1213.7 404.31 1214.47 403.536 1215.4 403.553C1216.33 403.57 1217.08 404.371 1217.06 405.341Z" fill="white" fill-opacity="0.9"/>
<path d="M1062.73 418.382C1063.66 418.399 1064.43 417.625 1064.45 416.655C1064.47 415.684 1063.73 414.883 1062.79 414.866C1061.86 414.849 1061.09 415.622 1061.07 416.593C1061.05 417.564 1061.79 418.365 1062.73 418.382Z" fill="white" fill-opacity="0.9"/>
<path d="M1077.97 418.658C1078.9 418.675 1079.67 417.901 1079.69 416.93C1079.71 415.959 1078.96 415.158 1078.03 415.141C1077.1 415.124 1076.32 415.898 1076.31 416.869C1076.29 417.84 1077.03 418.641 1077.97 418.658Z" fill="white" fill-opacity="0.9"/>
<path d="M1093.2 418.934C1094.14 418.951 1094.91 418.178 1094.92 417.207C1094.94 416.236 1094.2 415.435 1093.27 415.418C1092.33 415.401 1091.56 416.175 1091.54 417.146C1091.52 418.116 1092.27 418.917 1093.2 418.934Z" fill="white" fill-opacity="0.9"/>
<path d="M1108.44 419.211C1109.37 419.228 1110.14 418.455 1110.16 417.484C1110.18 416.513 1109.44 415.712 1108.5 415.695C1107.57 415.678 1106.8 416.451 1106.78 417.422C1106.76 418.393 1107.5 419.194 1108.44 419.211Z" fill="white" fill-opacity="0.9"/>
<path d="M1125.4 417.761C1125.38 418.731 1124.61 419.505 1123.67 419.488C1122.74 419.471 1122 418.67 1122.01 417.699C1122.03 416.729 1122.8 415.955 1123.74 415.972C1124.67 415.989 1125.41 416.791 1125.4 417.761Z" fill="white" fill-opacity="0.9"/>
<path d="M1138.9 419.765C1139.84 419.782 1140.61 419.008 1140.62 418.037C1140.64 417.066 1139.9 416.266 1138.97 416.249C1138.03 416.232 1137.26 417.005 1137.24 417.976C1137.22 418.947 1137.97 419.748 1138.9 419.765Z" fill="white" fill-opacity="0.9"/>
<path d="M1154.14 420.042C1155.07 420.059 1155.84 419.286 1155.86 418.315C1155.88 417.344 1155.13 416.543 1154.2 416.526C1153.27 416.509 1152.5 417.282 1152.48 418.253C1152.46 419.224 1153.2 420.025 1154.14 420.042Z" fill="white" fill-opacity="0.9"/>
<path d="M1169.37 420.319C1170.31 420.336 1171.08 419.562 1171.1 418.591C1171.11 417.62 1170.37 416.82 1169.44 416.803C1168.5 416.786 1167.73 417.559 1167.71 418.53C1167.7 419.501 1168.44 420.302 1169.37 420.319Z" fill="white" fill-opacity="0.9"/>
<path d="M1184.61 420.596C1185.54 420.613 1186.32 419.839 1186.33 418.868C1186.35 417.897 1185.61 417.096 1184.67 417.08C1183.74 417.063 1182.97 417.836 1182.95 418.807C1182.93 419.778 1183.68 420.579 1184.61 420.596Z" fill="white" fill-opacity="0.9"/>
<path d="M1199.85 420.872C1200.78 420.889 1201.55 420.116 1201.57 419.145C1201.59 418.174 1200.84 417.373 1199.91 417.356C1198.98 417.339 1198.2 418.113 1198.19 419.084C1198.17 420.055 1198.91 420.855 1199.85 420.872Z" fill="white" fill-opacity="0.9"/>
<path d="M1215.08 421.149C1216.02 421.166 1216.79 420.393 1216.8 419.422C1216.82 418.451 1216.08 417.65 1215.15 417.633C1214.21 417.616 1213.44 418.389 1213.42 419.36C1213.4 420.331 1214.15 421.132 1215.08 421.149Z" fill="white" fill-opacity="0.9"/>
<path d="M1062.47 432.464C1063.41 432.481 1064.18 431.708 1064.2 430.737C1064.21 429.766 1063.47 428.965 1062.54 428.948C1061.6 428.931 1060.83 429.704 1060.81 430.675C1060.8 431.646 1061.54 432.447 1062.47 432.464Z" fill="white" fill-opacity="0.9"/>
<path d="M1077.71 432.739C1078.64 432.756 1079.42 431.983 1079.43 431.012C1079.45 430.041 1078.71 429.24 1077.77 429.223C1076.84 429.206 1076.07 429.979 1076.05 430.95C1076.03 431.921 1076.78 432.722 1077.71 432.739Z" fill="white" fill-opacity="0.9"/>
<path d="M1092.94 433.016C1093.88 433.033 1094.65 432.26 1094.67 431.289C1094.69 430.318 1093.94 429.517 1093.01 429.5C1092.07 429.483 1091.3 430.256 1091.29 431.227C1091.27 432.198 1092.01 432.999 1092.94 433.016Z" fill="white" fill-opacity="0.9"/>
<path d="M1108.18 433.293C1109.11 433.31 1109.89 432.537 1109.9 431.566C1109.92 430.595 1109.18 429.794 1108.24 429.777C1107.31 429.76 1106.54 430.533 1106.52 431.504C1106.5 432.475 1107.25 433.276 1108.18 433.293Z" fill="white" fill-opacity="0.9"/>
<path d="M1125.14 431.842C1125.12 432.813 1124.35 433.587 1123.42 433.57C1122.48 433.553 1121.74 432.751 1121.76 431.781C1121.78 430.811 1122.55 430.037 1123.48 430.054C1124.41 430.062 1125.16 430.864 1125.14 431.842Z" fill="white" fill-opacity="0.9"/>
<path d="M1138.64 433.846C1139.58 433.863 1140.35 433.09 1140.37 432.119C1140.39 431.148 1139.64 430.347 1138.71 430.33C1137.77 430.313 1137 431.087 1136.99 432.058C1136.97 433.029 1137.71 433.829 1138.64 433.846Z" fill="white" fill-opacity="0.9"/>
<path d="M1153.88 434.123C1154.82 434.14 1155.59 433.367 1155.6 432.396C1155.62 431.425 1154.88 430.624 1153.95 430.607C1153.01 430.59 1152.24 431.364 1152.22 432.335C1152.2 433.305 1152.95 434.106 1153.88 434.123Z" fill="white" fill-opacity="0.9"/>
<path d="M1169.12 434.4C1170.05 434.417 1170.82 433.644 1170.84 432.673C1170.86 431.702 1170.11 430.901 1169.18 430.884C1168.25 430.867 1167.48 431.64 1167.46 432.611C1167.44 433.582 1168.18 434.383 1169.12 434.4Z" fill="white" fill-opacity="0.9"/>
<path d="M1184.35 434.677C1185.29 434.694 1186.06 433.92 1186.08 432.949C1186.09 431.978 1185.35 431.178 1184.42 431.161C1183.48 431.144 1182.71 431.917 1182.69 432.888C1182.68 433.859 1183.42 434.66 1184.35 434.677Z" fill="white" fill-opacity="0.9"/>
<path d="M1199.59 434.953C1200.52 434.97 1201.29 434.197 1201.31 433.226C1201.33 432.255 1200.59 431.454 1199.65 431.437C1198.72 431.42 1197.95 432.194 1197.93 433.165C1197.91 434.135 1198.66 434.936 1199.59 434.953Z" fill="white" fill-opacity="0.9"/>
<path d="M1214.83 435.23C1215.76 435.247 1216.53 434.474 1216.55 433.503C1216.57 432.532 1215.82 431.731 1214.89 431.714C1213.96 431.697 1213.18 432.471 1213.17 433.441C1213.15 434.412 1213.89 435.213 1214.83 435.23Z" fill="white" fill-opacity="0.9"/>
<path d="M1063.94 444.81C1063.92 445.78 1063.15 446.554 1062.22 446.537C1061.28 446.52 1060.54 445.719 1060.56 444.749C1060.58 443.778 1061.35 443.004 1062.28 443.021C1063.21 443.038 1063.96 443.84 1063.94 444.81Z" fill="white" fill-opacity="0.9"/>
<path d="M1079.18 445.085C1079.16 446.055 1078.39 446.829 1077.45 446.812C1076.52 446.796 1075.78 445.994 1075.79 445.024C1075.81 444.053 1076.58 443.279 1077.52 443.296C1078.45 443.313 1079.19 444.115 1079.18 445.085Z" fill="white" fill-opacity="0.9"/>
<path d="M1094.41 445.362C1094.39 446.333 1093.62 447.107 1092.69 447.09C1091.76 447.073 1091.01 446.271 1091.03 445.301C1091.05 444.331 1091.82 443.557 1092.75 443.574C1093.69 443.59 1094.43 444.392 1094.41 445.362Z" fill="white" fill-opacity="0.9"/>
<path d="M1109.65 445.639C1109.63 446.609 1108.86 447.383 1107.93 447.366C1106.99 447.349 1106.25 446.548 1106.27 445.578C1106.28 444.607 1107.06 443.833 1107.99 443.85C1108.92 443.867 1109.67 444.669 1109.65 445.639Z" fill="white" fill-opacity="0.9"/>
<path d="M1124.88 445.916C1124.87 446.886 1124.09 447.66 1123.16 447.643C1122.23 447.626 1121.48 446.824 1121.5 445.854C1121.52 444.884 1122.29 444.11 1123.22 444.127C1124.16 444.144 1124.9 444.945 1124.88 445.916Z" fill="white" fill-opacity="0.9"/>
<path d="M1140.12 446.192C1140.1 447.163 1139.33 447.937 1138.4 447.92C1137.46 447.903 1136.72 447.101 1136.74 446.131C1136.76 445.161 1137.53 444.387 1138.46 444.404C1139.39 444.421 1140.14 445.222 1140.12 446.192Z" fill="white" fill-opacity="0.9"/>
<path d="M1155.35 446.47C1155.33 447.44 1154.56 448.214 1153.63 448.197C1152.69 448.18 1151.95 447.378 1151.97 446.408C1151.98 445.438 1152.76 444.664 1153.69 444.681C1154.62 444.698 1155.37 445.499 1155.35 446.47Z" fill="white" fill-opacity="0.9"/>
<path d="M1170.58 446.746C1170.57 447.716 1169.79 448.49 1168.86 448.473C1167.93 448.457 1167.18 447.655 1167.2 446.685C1167.22 445.714 1167.99 444.94 1168.92 444.957C1169.86 444.974 1170.6 445.776 1170.58 446.746Z" fill="white" fill-opacity="0.9"/>
<path d="M1185.82 447.023C1185.8 447.993 1185.03 448.767 1184.1 448.75C1183.16 448.733 1182.42 447.932 1182.44 446.961C1182.46 445.991 1183.23 445.217 1184.16 445.234C1185.09 445.251 1185.84 446.053 1185.82 447.023Z" fill="white" fill-opacity="0.9"/>
<path d="M1201.06 447.3C1201.04 448.27 1200.27 449.044 1199.33 449.027C1198.4 449.01 1197.66 448.208 1197.67 447.238C1197.69 446.268 1198.46 445.494 1199.4 445.511C1200.33 445.528 1201.07 446.329 1201.06 447.3Z" fill="white" fill-opacity="0.9"/>
<path d="M1216.29 447.577C1216.27 448.547 1215.5 449.321 1214.57 449.304C1213.64 449.287 1212.89 448.486 1212.91 447.515C1212.93 446.545 1213.7 445.771 1214.63 445.788C1215.57 445.805 1216.31 446.607 1216.29 447.577Z" fill="white" fill-opacity="0.9"/>
</g>
<g opacity="0.36">
<g style="mix-blend-mode:color-dodge">
<path d="M218.221 446.165L172.195 492.174" stroke="#F8F0E4" stroke-miterlimit="10"/>
<path d="M218.221 492.174L172.195 446.165" stroke="#F8F0E4" stroke-miterlimit="10"/>
</g>
<g style="mix-blend-mode:color-dodge">
<path d="M1186.4 852.068L1140.38 898.094" stroke="#F8F0E4" stroke-miterlimit="10"/>
<path d="M1186.4 898.094L1140.38 852.068" stroke="#F8F0E4" stroke-miterlimit="10"/>
</g>
</g>
<g opacity="0.36">
<path d="M1408.03 101L1362 147.009" stroke="#F8F0E4" stroke-miterlimit="10"/>
<path d="M1408.03 147.009L1362 101" stroke="#F8F0E4" stroke-miterlimit="10"/>
<path d="M1408.03 163.554L1362 209.58" stroke="#F8F0E4" stroke-miterlimit="10"/>
<path d="M1408.03 209.58L1362 163.554" stroke="#F8F0E4" stroke-miterlimit="10"/>
<path d="M1408.03 226.109L1362 272.134" stroke="#F8F0E4" stroke-miterlimit="10"/>
<path d="M1408.03 272.134L1362 226.109" stroke="#F8F0E4" stroke-miterlimit="10"/>
</g>
<g opacity="0.36">
<path d="M73 963L119.009 1009.03" stroke="#F8F0E4" stroke-miterlimit="10"/>
<path d="M119.009 963L73 1009.03" stroke="#F8F0E4" stroke-miterlimit="10"/>
<path d="M135.554 963L181.58 1009.03" stroke="#F8F0E4" stroke-miterlimit="10"/>
<path d="M181.58 963L135.554 1009.03" stroke="#F8F0E4" stroke-miterlimit="10"/>
<path d="M198.108 963L244.134 1009.03" stroke="#F8F0E4" stroke-miterlimit="10"/>
<path d="M244.134 963L198.108 1009.03" stroke="#F8F0E4" stroke-miterlimit="10"/>
</g>
<g opacity="0.25">
<path d="M98.3022 665.779C99.2045 666.021 100.14 665.456 100.391 664.518C100.642 663.58 100.115 662.624 99.2124 662.382C98.3101 662.14 97.3749 662.705 97.1235 663.643C96.8722 664.581 97.3999 665.537 98.3022 665.779Z" fill="white" fill-opacity="0.9"/>
<path d="M113.022 669.723C113.924 669.965 114.859 669.4 115.111 668.462C115.362 667.524 114.834 666.568 113.932 666.326C113.03 666.084 112.095 666.649 111.843 667.587C111.592 668.525 112.12 669.481 113.022 669.723Z" fill="white" fill-opacity="0.9"/>
<path d="M127.741 673.667C128.643 673.908 129.579 673.344 129.83 672.406C130.081 671.468 129.554 670.511 128.651 670.27C127.749 670.028 126.814 670.592 126.562 671.53C126.311 672.468 126.839 673.425 127.741 673.667Z" fill="white" fill-opacity="0.9"/>
<path d="M142.461 677.611C143.363 677.852 144.298 677.288 144.55 676.35C144.801 675.412 144.273 674.456 143.371 674.214C142.469 673.972 141.534 674.536 141.282 675.474C141.031 676.412 141.559 677.369 142.461 677.611Z" fill="white" fill-opacity="0.9"/>
<path d="M159.268 680.294C159.017 681.232 158.081 681.797 157.179 681.555C156.277 681.313 155.749 680.356 156 679.419C156.252 678.481 157.188 677.916 158.089 678.158C158.991 678.4 159.519 679.357 159.268 680.294Z" fill="white" fill-opacity="0.9"/>
<path d="M171.892 685.497C172.794 685.738 173.729 685.174 173.98 684.236C174.232 683.298 173.704 682.342 172.802 682.1C171.899 681.858 170.964 682.422 170.713 683.36C170.462 684.298 170.989 685.255 171.892 685.497Z" fill="white" fill-opacity="0.9"/>
<path d="M186.611 689.44C187.513 689.682 188.448 689.118 188.7 688.18C188.951 687.242 188.423 686.285 187.521 686.044C186.619 685.802 185.683 686.366 185.432 687.304C185.181 688.242 185.708 689.199 186.611 689.44Z" fill="white" fill-opacity="0.9"/>
<path d="M201.33 693.385C202.232 693.627 203.167 693.062 203.418 692.124C203.67 691.186 203.142 690.23 202.24 689.988C201.337 689.746 200.402 690.311 200.151 691.249C199.9 692.187 200.427 693.143 201.33 693.385Z" fill="white" fill-opacity="0.9"/>
<path d="M216.049 697.329C216.951 697.57 217.886 697.006 218.138 696.068C218.389 695.13 217.861 694.174 216.959 693.932C216.057 693.69 215.121 694.254 214.87 695.192C214.619 696.131 215.146 697.087 216.049 697.329Z" fill="white" fill-opacity="0.9"/>
<path d="M230.768 701.273C231.67 701.515 232.606 700.95 232.857 700.012C233.108 699.074 232.58 698.118 231.678 697.876C230.776 697.634 229.841 698.198 229.589 699.137C229.338 700.075 229.866 701.031 230.768 701.273Z" fill="white" fill-opacity="0.9"/>
<path d="M245.487 705.217C246.389 705.459 247.324 704.894 247.576 703.956C247.827 703.018 247.299 702.062 246.397 701.82C245.495 701.578 244.559 702.143 244.308 703.081C244.057 704.019 244.584 704.975 245.487 705.217Z" fill="white" fill-opacity="0.9"/>
<path d="M94.6567 679.386C95.559 679.628 96.4942 679.063 96.7455 678.125C96.9969 677.187 96.4692 676.231 95.5669 675.989C94.6646 675.747 93.7294 676.312 93.478 677.25C93.2267 678.188 93.7544 679.144 94.6567 679.386Z" fill="white" fill-opacity="0.9"/>
<path d="M109.377 683.326C110.279 683.568 111.214 683.003 111.466 682.065C111.717 681.127 111.189 680.171 110.287 679.929C109.385 679.687 108.45 680.252 108.198 681.19C107.947 682.128 108.475 683.084 109.377 683.326Z" fill="white" fill-opacity="0.9"/>
<path d="M124.097 687.27C124.999 687.512 125.934 686.947 126.185 686.009C126.437 685.071 125.909 684.115 125.007 683.873C124.105 683.631 123.169 684.196 122.918 685.134C122.667 686.072 123.194 687.028 124.097 687.27Z" fill="white" fill-opacity="0.9"/>
<path d="M138.816 691.214C139.718 691.456 140.653 690.891 140.905 689.953C141.156 689.015 140.628 688.059 139.726 687.817C138.824 687.575 137.889 688.139 137.637 689.078C137.386 690.016 137.914 690.972 138.816 691.214Z" fill="white" fill-opacity="0.9"/>
<path d="M155.623 693.897C155.372 694.835 154.436 695.4 153.534 695.158C152.632 694.916 152.104 693.959 152.355 693.022C152.607 692.084 153.543 691.52 154.444 691.761C155.346 692.003 155.874 692.96 155.623 693.897Z" fill="white" fill-opacity="0.9"/>
<path d="M168.247 699.1C169.149 699.341 170.084 698.777 170.335 697.839C170.587 696.901 170.059 695.944 169.157 695.703C168.254 695.461 167.319 696.025 167.068 696.963C166.817 697.901 167.344 698.858 168.247 699.1Z" fill="white" fill-opacity="0.9"/>
<path d="M182.965 703.044C183.867 703.286 184.802 702.721 185.054 701.783C185.305 700.845 184.777 699.889 183.875 699.647C182.973 699.405 182.037 699.97 181.786 700.908C181.535 701.846 182.062 702.802 182.965 703.044Z" fill="white" fill-opacity="0.9"/>
<path d="M197.685 706.988C198.587 707.23 199.522 706.665 199.773 705.727C200.025 704.789 199.497 703.833 198.595 703.591C197.692 703.349 196.757 703.914 196.506 704.852C196.254 705.79 196.782 706.746 197.685 706.988Z" fill="white" fill-opacity="0.9"/>
<path d="M212.404 710.932C213.307 711.174 214.242 710.609 214.493 709.671C214.744 708.733 214.217 707.777 213.314 707.535C212.412 707.293 211.477 707.858 211.226 708.796C210.974 709.734 211.502 710.69 212.404 710.932Z" fill="white" fill-opacity="0.9"/>
<path d="M227.123 714.876C228.026 715.117 228.961 714.553 229.212 713.615C229.464 712.677 228.936 711.721 228.034 711.479C227.131 711.237 226.196 711.801 225.945 712.74C225.693 713.678 226.221 714.634 227.123 714.876Z" fill="white" fill-opacity="0.9"/>
<path d="M241.843 718.82C242.745 719.062 243.68 718.497 243.932 717.559C244.183 716.621 243.655 715.665 242.753 715.423C241.851 715.181 240.915 715.746 240.664 716.684C240.413 717.622 240.94 718.578 241.843 718.82Z" fill="white" fill-opacity="0.9"/>
<path d="M91.0141 692.978C91.9164 693.22 92.8516 692.656 93.1029 691.718C93.3543 690.78 92.8266 689.823 91.9243 689.581C91.022 689.34 90.0868 689.904 89.8354 690.842C89.5841 691.78 90.1118 692.736 91.0141 692.978Z" fill="white" fill-opacity="0.9"/>
<path d="M105.735 696.922C106.637 697.163 107.572 696.599 107.824 695.661C108.075 694.723 107.547 693.767 106.645 693.525C105.743 693.283 104.807 693.847 104.556 694.786C104.305 695.724 104.832 696.68 105.735 696.922Z" fill="white" fill-opacity="0.9"/>
<path d="M120.454 700.865C121.356 701.107 122.291 700.543 122.542 699.605C122.794 698.667 122.266 697.71 121.364 697.469C120.461 697.227 119.526 697.791 119.275 698.729C119.024 699.667 119.551 700.624 120.454 700.865Z" fill="white" fill-opacity="0.9"/>
<path d="M135.173 704.809C136.076 705.051 137.011 704.487 137.262 703.549C137.514 702.611 136.986 701.654 136.084 701.413C135.181 701.171 134.246 701.735 133.995 702.673C133.743 703.611 134.271 704.568 135.173 704.809Z" fill="white" fill-opacity="0.9"/>
<path d="M151.981 707.493C151.73 708.43 150.794 708.995 149.892 708.754C148.99 708.512 148.462 707.555 148.713 706.618C148.965 705.68 149.901 705.115 150.802 705.357C151.704 705.598 152.232 706.556 151.981 707.493Z" fill="white" fill-opacity="0.9"/>
<path d="M164.604 712.695C165.506 712.937 166.441 712.373 166.693 711.435C166.944 710.497 166.416 709.54 165.514 709.299C164.612 709.057 163.677 709.621 163.425 710.559C163.174 711.497 163.702 712.454 164.604 712.695Z" fill="white" fill-opacity="0.9"/>
<path d="M179.323 716.64C180.225 716.882 181.16 716.317 181.412 715.379C181.663 714.441 181.135 713.485 180.233 713.243C179.331 713.001 178.395 713.566 178.144 714.504C177.893 715.442 178.42 716.398 179.323 716.64Z" fill="white" fill-opacity="0.9"/>
<path d="M194.042 720.584C194.944 720.825 195.879 720.261 196.131 719.323C196.382 718.385 195.854 717.428 194.952 717.187C194.05 716.945 193.115 717.509 192.863 718.447C192.612 719.385 193.14 720.342 194.042 720.584Z" fill="white" fill-opacity="0.9"/>
<path d="M208.762 724.528C209.664 724.769 210.599 724.205 210.85 723.267C211.102 722.329 210.574 721.372 209.672 721.131C208.77 720.889 207.834 721.453 207.583 722.391C207.332 723.329 207.859 724.286 208.762 724.528Z" fill="white" fill-opacity="0.9"/>
<path d="M223.481 728.472C224.383 728.713 225.318 728.149 225.57 727.211C225.821 726.273 225.293 725.316 224.391 725.075C223.489 724.833 222.554 725.397 222.302 726.335C222.051 727.273 222.579 728.23 223.481 728.472Z" fill="white" fill-opacity="0.9"/>
<path d="M238.201 732.416C239.103 732.658 240.038 732.093 240.29 731.155C240.541 730.217 240.013 729.261 239.111 729.019C238.209 728.777 237.273 729.342 237.022 730.28C236.771 731.218 237.298 732.174 238.201 732.416Z" fill="white" fill-opacity="0.9"/>
<path d="M89.4574 705.324C89.2063 706.262 88.2702 706.827 87.3686 706.585C86.4669 706.343 85.9388 705.386 86.1899 704.449C86.4411 703.512 87.3771 702.947 88.2788 703.188C89.1804 703.43 89.7086 704.387 89.4574 705.324Z" fill="white" fill-opacity="0.9"/>
<path d="M104.177 709.265C103.926 710.202 102.99 710.767 102.088 710.526C101.187 710.284 100.658 709.327 100.91 708.39C101.161 707.452 102.097 706.887 102.999 707.129C103.9 707.37 104.428 708.328 104.177 709.265Z" fill="white" fill-opacity="0.9"/>
<path d="M118.897 713.209C118.646 714.146 117.71 714.711 116.809 714.469C115.907 714.228 115.379 713.27 115.63 712.333C115.881 711.396 116.817 710.831 117.719 711.072C118.62 711.314 119.149 712.271 118.897 713.209Z" fill="white" fill-opacity="0.9"/>
<path d="M133.616 717.153C133.365 718.09 132.429 718.655 131.527 718.414C130.626 718.172 130.097 717.215 130.349 716.277C130.6 715.34 131.536 714.775 132.438 715.017C133.339 715.258 133.867 716.216 133.616 717.153Z" fill="white" fill-opacity="0.9"/>
<path d="M148.336 721.097C148.085 722.034 147.149 722.599 146.247 722.358C145.345 722.116 144.817 721.159 145.068 720.221C145.32 719.284 146.256 718.719 147.157 718.961C148.059 719.202 148.587 720.16 148.336 721.097Z" fill="white" fill-opacity="0.9"/>
<path d="M163.055 725.041C162.803 725.978 161.867 726.543 160.966 726.301C160.064 726.06 159.536 725.103 159.787 724.165C160.038 723.228 160.974 722.663 161.876 722.905C162.77 723.144 163.306 724.103 163.055 725.041Z" fill="white" fill-opacity="0.9"/>
<path d="M177.767 728.983C177.515 729.92 176.579 730.485 175.678 730.244C174.776 730.002 174.248 729.045 174.499 728.107C174.75 727.17 175.686 726.605 176.588 726.847C177.49 727.088 178.018 728.046 177.767 728.983Z" fill="white" fill-opacity="0.9"/>
<path d="M192.485 732.927C192.234 733.864 191.298 734.429 190.396 734.188C189.495 733.946 188.967 732.989 189.218 732.051C189.469 731.114 190.405 730.549 191.307 730.791C192.208 731.032 192.736 731.989 192.485 732.927Z" fill="white" fill-opacity="0.9"/>
<path d="M207.205 736.871C206.954 737.808 206.018 738.373 205.116 738.131C204.214 737.89 203.686 736.932 203.937 735.995C204.189 735.058 205.125 734.493 206.026 734.734C206.928 734.976 207.456 735.933 207.205 736.871Z" fill="white" fill-opacity="0.9"/>
<path d="M221.924 740.815C221.673 741.752 220.737 742.317 219.835 742.075C218.934 741.834 218.406 740.876 218.657 739.939C218.908 739.002 219.844 738.437 220.746 738.678C221.647 738.92 222.175 739.877 221.924 740.815Z" fill="white" fill-opacity="0.9"/>
<path d="M236.643 744.759C236.392 745.696 235.456 746.261 234.554 746.02C233.652 745.778 233.124 744.821 233.375 743.883C233.627 742.946 234.563 742.381 235.464 742.623C236.366 742.864 236.894 743.822 236.643 744.759Z" fill="white" fill-opacity="0.9"/>
<path d="M85.8124 718.926C85.5612 719.863 84.6252 720.428 83.7235 720.186C82.8219 719.945 82.2937 718.988 82.5449 718.05C82.796 717.113 83.7321 716.548 84.6337 716.79C85.5375 717.023 86.0657 717.98 85.8124 718.926Z" fill="white" fill-opacity="0.9"/>
<path d="M100.533 722.869C100.282 723.806 99.3459 724.371 98.4443 724.129C97.5426 723.888 97.0144 722.931 97.2656 721.993C97.5168 721.056 98.4528 720.491 99.3544 720.733C100.258 720.966 100.786 721.923 100.533 722.869Z" fill="white" fill-opacity="0.9"/>
<path d="M115.251 726.813C115 727.75 114.064 728.315 113.162 728.073C112.26 727.832 111.732 726.875 111.983 725.937C112.235 725 113.171 724.435 114.072 724.677C114.976 724.91 115.504 725.867 115.251 726.813Z" fill="white" fill-opacity="0.9"/>
<path d="M129.972 730.756C129.72 731.694 128.784 732.259 127.883 732.017C126.981 731.776 126.453 730.818 126.704 729.881C126.955 728.944 127.891 728.379 128.793 728.62C129.697 728.854 130.225 729.811 129.972 730.756Z" fill="white" fill-opacity="0.9"/>
<path d="M144.69 734.701C144.439 735.638 143.503 736.203 142.601 735.961C141.7 735.72 141.172 734.763 141.423 733.825C141.674 732.888 142.61 732.323 143.512 732.565C144.415 732.798 144.944 733.755 144.69 734.701Z" fill="white" fill-opacity="0.9"/>
<path d="M159.409 738.644C159.158 739.582 158.222 740.147 157.32 739.905C156.419 739.664 155.89 738.706 156.142 737.769C156.393 736.832 157.329 736.267 158.23 736.508C159.127 736.74 159.662 737.699 159.409 738.644Z" fill="white" fill-opacity="0.9"/>
<path d="M174.121 742.586C173.87 743.524 172.934 744.089 172.033 743.847C171.131 743.606 170.603 742.648 170.854 741.711C171.105 740.774 172.041 740.209 172.943 740.45C173.847 740.684 174.375 741.641 174.121 742.586Z" fill="white" fill-opacity="0.9"/>
<path d="M188.84 746.531C188.589 747.468 187.653 748.033 186.751 747.791C185.85 747.55 185.322 746.592 185.573 745.655C185.824 744.718 186.76 744.153 187.662 744.394C188.563 744.636 189.094 745.585 188.84 746.531Z" fill="white" fill-opacity="0.9"/>
<path d="M203.56 750.475C203.309 751.412 202.373 751.977 201.471 751.735C200.569 751.494 200.041 750.536 200.292 749.599C200.544 748.662 201.48 748.097 202.381 748.338C203.285 748.572 203.813 749.529 203.56 750.475Z" fill="white" fill-opacity="0.9"/>
<path d="M218.279 754.419C218.028 755.356 217.092 755.921 216.19 755.679C215.289 755.438 214.761 754.48 215.012 753.543C215.263 752.606 216.199 752.041 217.101 752.282C218.004 752.516 218.533 753.473 218.279 754.419Z" fill="white" fill-opacity="0.9"/>
<path d="M232.998 758.363C232.747 759.3 231.811 759.865 230.909 759.624C230.007 759.382 229.479 758.425 229.73 757.487C229.982 756.55 230.918 755.985 231.819 756.227C232.723 756.46 233.251 757.418 232.998 758.363Z" fill="white" fill-opacity="0.9"/>
<path d="M80.081 733.781C80.9833 734.023 81.9185 733.459 82.1698 732.521C82.4212 731.583 81.8935 730.626 80.9912 730.384C80.0889 730.143 79.1537 730.707 78.9023 731.645C78.651 732.583 79.1787 733.54 80.081 733.781Z" fill="white" fill-opacity="0.9"/>
<path d="M94.8012 737.724C95.7035 737.966 96.6387 737.402 96.8901 736.464C97.1414 735.526 96.6137 734.569 95.7114 734.327C94.8091 734.086 93.8739 734.65 93.6225 735.588C93.3712 736.526 93.8989 737.482 94.8012 737.724Z" fill="white" fill-opacity="0.9"/>
<path d="M109.52 741.668C110.423 741.91 111.358 741.346 111.609 740.408C111.861 739.47 111.333 738.513 110.431 738.271C109.528 738.03 108.593 738.594 108.342 739.532C108.09 740.47 108.618 741.426 109.52 741.668Z" fill="white" fill-opacity="0.9"/>
<path d="M124.24 745.612C125.143 745.854 126.078 745.29 126.329 744.352C126.58 743.414 126.053 742.457 125.15 742.215C124.248 741.974 123.313 742.538 123.062 743.476C122.81 744.414 123.338 745.37 124.24 745.612Z" fill="white" fill-opacity="0.9"/>
<path d="M141.048 748.296C140.797 749.233 139.861 749.798 138.959 749.557C138.057 749.315 137.529 748.358 137.78 747.42C138.031 746.483 138.967 745.918 139.869 746.16C140.771 746.401 141.299 747.358 141.048 748.296Z" fill="white" fill-opacity="0.9"/>
<path d="M153.671 753.498C154.573 753.74 155.508 753.176 155.76 752.238C156.011 751.3 155.483 750.343 154.581 750.101C153.679 749.86 152.744 750.424 152.492 751.362C152.241 752.3 152.769 753.256 153.671 753.498Z" fill="white" fill-opacity="0.9"/>
<path d="M168.39 757.442C169.292 757.684 170.227 757.12 170.478 756.182C170.73 755.244 170.202 754.287 169.3 754.046C168.397 753.804 167.462 754.368 167.211 755.306C166.96 756.244 167.487 757.201 168.39 757.442Z" fill="white" fill-opacity="0.9"/>
<path d="M183.109 761.386C184.011 761.628 184.946 761.064 185.198 760.126C185.449 759.188 184.921 758.231 184.019 757.99C183.117 757.748 182.182 758.312 181.93 759.25C181.679 760.188 182.207 761.145 183.109 761.386Z" fill="white" fill-opacity="0.9"/>
<path d="M197.828 765.33C198.73 765.572 199.666 765.008 199.917 764.07C200.168 763.132 199.641 762.175 198.738 761.933C197.836 761.692 196.901 762.256 196.649 763.194C196.398 764.132 196.926 765.089 197.828 765.33Z" fill="white" fill-opacity="0.9"/>
<path d="M212.548 769.274C213.45 769.516 214.385 768.952 214.637 768.014C214.888 767.076 214.36 766.119 213.458 765.877C212.556 765.636 211.62 766.2 211.369 767.138C211.118 768.076 211.645 769.033 212.548 769.274Z" fill="white" fill-opacity="0.9"/>
<path d="M227.266 773.218C228.168 773.46 229.104 772.896 229.355 771.958C229.606 771.02 229.079 770.063 228.176 769.822C227.274 769.58 226.339 770.144 226.087 771.082C225.836 772.02 226.364 772.977 227.266 773.218Z" fill="white" fill-opacity="0.9"/>
<path d="M76.4365 747.385C77.3388 747.627 78.274 747.062 78.5253 746.124C78.7767 745.186 78.2489 744.23 77.3466 743.988C76.4443 743.746 75.5091 744.311 75.2578 745.249C75.0065 746.187 75.5342 747.143 76.4365 747.385Z" fill="white" fill-opacity="0.9"/>
<path d="M91.1552 751.328C92.0575 751.57 92.9927 751.006 93.2441 750.068C93.4954 749.13 92.9677 748.173 92.0654 747.932C91.1631 747.69 90.2279 748.254 89.9765 749.192C89.7252 750.13 90.2529 751.087 91.1552 751.328Z" fill="white" fill-opacity="0.9"/>
<path d="M105.875 755.272C106.778 755.513 107.713 754.949 107.964 754.011C108.216 753.073 107.688 752.117 106.786 751.875C105.883 751.633 104.948 752.197 104.697 753.135C104.445 754.073 104.973 755.03 105.875 755.272Z" fill="white" fill-opacity="0.9"/>
<path d="M120.594 759.216C121.497 759.458 122.432 758.894 122.683 757.956C122.934 757.017 122.407 756.061 121.504 755.819C120.602 755.578 119.667 756.142 119.416 757.08C119.164 758.018 119.692 758.974 120.594 759.216Z" fill="white" fill-opacity="0.9"/>
<path d="M137.402 761.9C137.151 762.837 136.215 763.402 135.313 763.16C134.412 762.919 133.884 761.961 134.135 761.024C134.386 760.087 135.322 759.522 136.224 759.763C137.125 760.005 137.653 760.962 137.402 761.9Z" fill="white" fill-opacity="0.9"/>
<path d="M150.025 767.102C150.927 767.344 151.862 766.779 152.114 765.841C152.365 764.903 151.837 763.947 150.935 763.705C150.033 763.463 149.098 764.028 148.846 764.966C148.595 765.904 149.123 766.86 150.025 767.102Z" fill="white" fill-opacity="0.9"/>
<path d="M164.744 771.046C165.646 771.288 166.582 770.724 166.833 769.786C167.084 768.848 166.557 767.891 165.654 767.649C164.752 767.408 163.817 767.972 163.565 768.91C163.314 769.848 163.842 770.804 164.744 771.046Z" fill="white" fill-opacity="0.9"/>
<path d="M179.464 774.99C180.366 775.232 181.301 774.667 181.553 773.729C181.804 772.791 181.276 771.835 180.374 771.593C179.472 771.351 178.536 771.916 178.285 772.854C178.034 773.792 178.561 774.748 179.464 774.99Z" fill="white" fill-opacity="0.9"/>
<path d="M194.183 778.934C195.085 779.176 196.021 778.611 196.272 777.673C196.523 776.735 195.996 775.779 195.093 775.537C194.191 775.295 193.256 775.86 193.004 776.798C192.753 777.736 193.281 778.692 194.183 778.934Z" fill="white" fill-opacity="0.9"/>
<path d="M208.902 782.878C209.804 783.12 210.739 782.556 210.991 781.618C211.242 780.68 210.714 779.723 209.812 779.481C208.91 779.24 207.974 779.804 207.723 780.742C207.472 781.68 207.999 782.637 208.902 782.878Z" fill="white" fill-opacity="0.9"/>
<path d="M223.621 786.822C224.523 787.064 225.459 786.499 225.71 785.561C225.961 784.623 225.434 783.667 224.531 783.425C223.629 783.183 222.694 783.748 222.442 784.686C222.191 785.624 222.719 786.58 223.621 786.822Z" fill="white" fill-opacity="0.9"/>
<path d="M74.8798 759.728C74.6286 760.666 73.6926 761.23 72.7909 760.989C71.8893 760.747 71.3611 759.79 71.6123 758.853C71.8634 757.915 72.7995 757.35 73.7011 757.592C74.6049 757.826 75.1331 758.783 74.8798 759.728Z" fill="white" fill-opacity="0.9"/>
<path d="M89.6 763.671C89.3488 764.608 88.4128 765.173 87.5111 764.932C86.6095 764.69 86.0813 763.733 86.3325 762.796C86.5836 761.858 87.5197 761.293 88.4213 761.535C89.3251 761.768 89.8533 762.726 89.6 763.671Z" fill="white" fill-opacity="0.9"/>
<path d="M104.319 767.615C104.068 768.552 103.132 769.117 102.23 768.876C101.329 768.634 100.801 767.677 101.052 766.739C101.303 765.802 102.239 765.237 103.141 765.479C104.044 765.712 104.573 766.67 104.319 767.615Z" fill="white" fill-opacity="0.9"/>
<path d="M119.039 771.559C118.787 772.496 117.851 773.061 116.95 772.82C116.048 772.578 115.52 771.621 115.771 770.683C116.022 769.746 116.958 769.181 117.86 769.423C118.764 769.656 119.292 770.614 119.039 771.559Z" fill="white" fill-opacity="0.9"/>
<path d="M133.757 775.503C133.506 776.44 132.57 777.005 131.668 776.764C130.767 776.522 130.239 775.565 130.49 774.628C130.741 773.69 131.677 773.125 132.579 773.367C133.482 773.601 134.011 774.558 133.757 775.503Z" fill="white" fill-opacity="0.9"/>
<path d="M148.476 779.447C148.225 780.385 147.289 780.949 146.388 780.708C145.486 780.466 144.958 779.509 145.209 778.572C145.46 777.634 146.396 777.069 147.298 777.311C148.194 777.542 148.73 778.502 148.476 779.447Z" fill="white" fill-opacity="0.9"/>
<path d="M163.189 783.389C162.938 784.326 162.002 784.891 161.1 784.65C160.198 784.408 159.67 783.451 159.921 782.513C160.173 781.576 161.109 781.011 162.01 781.253C162.914 781.486 163.442 782.444 163.189 783.389Z" fill="white" fill-opacity="0.9"/>
<path d="M177.907 787.333C177.656 788.27 176.72 788.835 175.818 788.594C174.917 788.352 174.388 787.395 174.64 786.457C174.891 785.52 175.827 784.955 176.728 785.197C177.63 785.438 178.16 786.388 177.907 787.333Z" fill="white" fill-opacity="0.9"/>
<path d="M192.627 791.277C192.376 792.214 191.44 792.779 190.538 792.538C189.636 792.296 189.108 791.339 189.359 790.402C189.611 789.464 190.547 788.899 191.448 789.141C192.352 789.374 192.88 790.332 192.627 791.277Z" fill="white" fill-opacity="0.9"/>
<path d="M207.346 795.221C207.095 796.158 206.159 796.723 205.257 796.482C204.356 796.24 203.827 795.283 204.079 794.345C204.33 793.408 205.266 792.843 206.167 793.085C207.071 793.318 207.599 794.276 207.346 795.221Z" fill="white" fill-opacity="0.9"/>
<path d="M222.065 799.165C221.814 800.103 220.878 800.668 219.976 800.426C219.074 800.184 218.546 799.227 218.797 798.29C219.048 797.352 219.985 796.788 220.886 797.029C221.79 797.263 222.318 798.22 222.065 799.165Z" fill="white" fill-opacity="0.9"/>
<path d="M71.2367 773.324C70.9856 774.261 70.0495 774.826 69.1479 774.584C68.2462 774.343 67.7181 773.386 67.9692 772.448C68.2204 771.511 69.1564 770.946 70.0581 771.187C70.9597 771.429 71.4879 772.386 71.2367 773.324Z" fill="white" fill-opacity="0.9"/>
<path d="M85.9565 777.267C85.7053 778.204 84.7693 778.769 83.8676 778.527C82.966 778.286 82.4378 777.329 82.6889 776.391C82.9401 775.454 83.8761 774.889 84.7778 775.131C85.6795 775.372 86.2076 776.329 85.9565 777.267Z" fill="white" fill-opacity="0.9"/>
<path d="M100.675 781.211C100.424 782.148 99.488 782.713 98.5864 782.472C97.6847 782.23 97.1565 781.273 97.4077 780.335C97.6589 779.398 98.5949 778.833 99.4965 779.075C100.398 779.316 100.926 780.274 100.675 781.211Z" fill="white" fill-opacity="0.9"/>
<path d="M115.395 785.155C115.144 786.092 114.208 786.657 113.306 786.415C112.404 786.174 111.876 785.217 112.127 784.279C112.379 783.342 113.315 782.777 114.216 783.018C115.118 783.26 115.646 784.217 115.395 785.155Z" fill="white" fill-opacity="0.9"/>
<path d="M130.114 789.099C129.863 790.036 128.926 790.601 128.025 790.36C127.123 790.118 126.595 789.161 126.846 788.223C127.097 787.286 128.033 786.721 128.935 786.963C129.837 787.204 130.365 788.162 130.114 789.099Z" fill="white" fill-opacity="0.9"/>
<path d="M144.833 793.043C144.582 793.98 143.646 794.545 142.744 794.304C141.842 794.062 141.314 793.105 141.565 792.167C141.817 791.23 142.753 790.665 143.654 790.907C144.548 791.146 145.084 792.106 144.833 793.043Z" fill="white" fill-opacity="0.9"/>
<path d="M159.544 796.985C159.293 797.922 158.357 798.487 157.455 798.246C156.554 798.004 156.026 797.047 156.277 796.109C156.528 795.172 157.464 794.607 158.366 794.849C159.267 795.09 159.796 796.048 159.544 796.985Z" fill="white" fill-opacity="0.9"/>
<path d="M174.264 800.929C174.013 801.866 173.077 802.431 172.175 802.19C171.274 801.948 170.745 800.991 170.997 800.053C171.248 799.116 172.184 798.551 173.085 798.793C173.987 799.034 174.515 799.992 174.264 800.929Z" fill="white" fill-opacity="0.9"/>
<path d="M188.983 804.873C188.732 805.81 187.796 806.375 186.894 806.134C185.993 805.892 185.465 804.935 185.716 803.997C185.967 803.06 186.903 802.495 187.805 802.737C188.706 802.978 189.234 803.936 188.983 804.873Z" fill="white" fill-opacity="0.9"/>
<path d="M203.703 808.817C203.451 809.754 202.515 810.319 201.614 810.078C200.712 809.836 200.184 808.879 200.435 807.941C200.686 807.004 201.622 806.439 202.524 806.681C203.426 806.922 203.954 807.879 203.703 808.817Z" fill="white" fill-opacity="0.9"/>
<path d="M218.422 812.761C218.171 813.698 217.235 814.263 216.333 814.022C215.432 813.78 214.904 812.823 215.155 811.885C215.406 810.948 216.342 810.383 217.244 810.625C218.145 810.866 218.673 811.824 218.422 812.761Z" fill="white" fill-opacity="0.9"/>
<path d="M65.5034 788.187C66.4057 788.429 67.3409 787.865 67.5922 786.927C67.8435 785.989 67.3158 785.032 66.4135 784.791C65.5112 784.549 64.576 785.113 64.3247 786.051C64.0733 786.989 64.601 787.946 65.5034 788.187Z" fill="white" fill-opacity="0.9"/>
<path d="M80.2236 792.131C81.1259 792.372 82.0611 791.808 82.3124 790.87C82.5638 789.932 82.0361 788.975 81.1338 788.734C80.2315 788.492 79.2962 789.056 79.0449 789.994C78.7936 790.932 79.3213 791.889 80.2236 792.131Z" fill="white" fill-opacity="0.9"/>
<path d="M94.9433 796.075C95.8456 796.316 96.7808 795.752 97.0321 794.814C97.2835 793.876 96.7558 792.919 95.8535 792.678C94.9512 792.436 94.016 793 93.7646 793.938C93.5133 794.876 94.041 795.833 94.9433 796.075Z" fill="white" fill-opacity="0.9"/>
<path d="M109.663 800.018C110.565 800.26 111.5 799.696 111.751 798.758C112.003 797.82 111.475 796.863 110.573 796.622C109.67 796.38 108.735 796.944 108.484 797.882C108.233 798.82 108.76 799.777 109.663 800.018Z" fill="white" fill-opacity="0.9"/>
<path d="M126.47 802.702C126.218 803.639 125.282 804.204 124.381 803.963C123.479 803.721 122.951 802.764 123.202 801.826C123.453 800.889 124.389 800.324 125.291 800.566C126.193 800.807 126.721 801.765 126.47 802.702Z" fill="white" fill-opacity="0.9"/>
<path d="M139.093 807.904C139.995 808.146 140.931 807.582 141.182 806.644C141.433 805.706 140.906 804.749 140.003 804.508C139.101 804.266 138.166 804.83 137.915 805.768C137.663 806.706 138.191 807.663 139.093 807.904Z" fill="white" fill-opacity="0.9"/>
<path d="M153.811 811.849C154.714 812.09 155.649 811.526 155.9 810.588C156.152 809.65 155.624 808.694 154.722 808.452C153.819 808.21 152.884 808.774 152.633 809.712C152.381 810.65 152.909 811.607 153.811 811.849Z" fill="white" fill-opacity="0.9"/>
<path d="M168.531 815.793C169.433 816.034 170.369 815.47 170.62 814.532C170.871 813.594 170.344 812.638 169.441 812.396C168.539 812.154 167.604 812.718 167.353 813.656C167.101 814.595 167.629 815.551 168.531 815.793Z" fill="white" fill-opacity="0.9"/>
<path d="M183.251 819.737C184.153 819.979 185.088 819.414 185.34 818.476C185.591 817.538 185.063 816.582 184.161 816.34C183.259 816.098 182.324 816.663 182.072 817.601C181.821 818.539 182.349 819.495 183.251 819.737Z" fill="white" fill-opacity="0.9"/>
<path d="M197.97 823.681C198.872 823.923 199.808 823.358 200.059 822.42C200.31 821.482 199.783 820.526 198.88 820.284C197.978 820.042 197.043 820.607 196.791 821.545C196.54 822.483 197.068 823.439 197.97 823.681Z" fill="white" fill-opacity="0.9"/>
<path d="M212.689 827.625C213.592 827.866 214.527 827.302 214.778 826.364C215.03 825.426 214.502 824.469 213.6 824.228C212.697 823.986 211.762 824.55 211.511 825.488C211.259 826.426 211.787 827.383 212.689 827.625Z" fill="white" fill-opacity="0.9"/>
<path d="M61.8578 801.792C62.7601 802.034 63.6954 801.469 63.9467 800.531C64.198 799.593 63.6703 798.637 62.768 798.395C61.8657 798.153 60.9305 798.718 60.6792 799.656C60.4278 800.594 60.9555 801.55 61.8578 801.792Z" fill="white" fill-opacity="0.9"/>
<path d="M76.5781 805.734C77.4804 805.976 78.4156 805.412 78.6669 804.474C78.9183 803.536 78.3905 802.579 77.4882 802.337C76.5859 802.096 75.6507 802.66 75.3994 803.598C75.1481 804.536 75.6758 805.492 76.5781 805.734Z" fill="white" fill-opacity="0.9"/>
<path d="M91.2963 809.678C92.1986 809.92 93.1338 809.356 93.3852 808.418C93.6365 807.48 93.1088 806.523 92.2065 806.281C91.3042 806.04 90.369 806.604 90.1177 807.542C89.8663 808.48 90.394 809.437 91.2963 809.678Z" fill="white" fill-opacity="0.9"/>
<path d="M106.016 813.622C106.918 813.864 107.854 813.3 108.105 812.362C108.356 811.424 107.829 810.467 106.926 810.225C106.024 809.984 105.089 810.548 104.837 811.486C104.586 812.424 105.114 813.381 106.016 813.622Z" fill="white" fill-opacity="0.9"/>
<path d="M122.824 816.306C122.573 817.243 121.637 817.808 120.735 817.566C119.834 817.325 119.305 816.368 119.557 815.43C119.808 814.493 120.744 813.928 121.645 814.17C122.549 814.403 123.077 815.36 122.824 816.306Z" fill="white" fill-opacity="0.9"/>
<path d="M135.447 821.508C136.349 821.75 137.284 821.186 137.536 820.248C137.787 819.31 137.259 818.353 136.357 818.111C135.455 817.87 134.519 818.434 134.268 819.372C134.017 820.31 134.544 821.266 135.447 821.508Z" fill="white" fill-opacity="0.9"/>
<path d="M150.166 825.452C151.069 825.694 152.004 825.13 152.255 824.192C152.507 823.254 151.979 822.297 151.077 822.056C150.174 821.814 149.239 822.378 148.988 823.316C148.736 824.254 149.264 825.211 150.166 825.452Z" fill="white" fill-opacity="0.9"/>
<path d="M164.886 829.396C165.788 829.638 166.723 829.074 166.975 828.136C167.226 827.197 166.698 826.241 165.796 825.999C164.894 825.758 163.958 826.322 163.707 827.26C163.456 828.198 163.983 829.154 164.886 829.396Z" fill="white" fill-opacity="0.9"/>
<path d="M179.605 833.34C180.507 833.582 181.442 833.018 181.694 832.08C181.945 831.141 181.417 830.185 180.515 829.943C179.613 829.702 178.678 830.266 178.426 831.204C178.175 832.142 178.703 833.098 179.605 833.34Z" fill="white" fill-opacity="0.9"/>
<path d="M194.324 837.284C195.226 837.526 196.162 836.961 196.413 836.023C196.664 835.085 196.137 834.129 195.234 833.887C194.332 833.645 193.397 834.21 193.145 835.148C192.894 836.086 193.422 837.042 194.324 837.284Z" fill="white" fill-opacity="0.9"/>
<path d="M209.044 841.228C209.946 841.47 210.881 840.905 211.133 839.967C211.384 839.029 210.856 838.073 209.954 837.831C209.052 837.589 208.117 838.154 207.865 839.092C207.614 840.03 208.142 840.986 209.044 841.228Z" fill="white" fill-opacity="0.9"/>
<path d="M60.3036 814.127C60.0525 815.065 59.1164 815.63 58.2148 815.388C57.3131 815.146 56.785 814.189 57.0361 813.252C57.2873 812.314 58.2233 811.749 59.125 811.991C60.0266 812.233 60.5548 813.19 60.3036 814.127Z" fill="white" fill-opacity="0.9"/>
<path d="M75.0234 818.07C74.7722 819.007 73.8362 819.572 72.9345 819.331C72.0329 819.089 71.5047 818.132 71.7558 817.194C72.007 816.257 72.943 815.692 73.8447 815.934C74.7463 816.175 75.2745 817.132 75.0234 818.07Z" fill="white" fill-opacity="0.9"/>
<path d="M89.7421 822.014C89.4909 822.951 88.5549 823.516 87.6533 823.275C86.7516 823.033 86.2234 822.076 86.4746 821.138C86.7258 820.201 87.6618 819.636 88.5634 819.878C89.4651 820.119 89.9933 821.077 89.7421 822.014Z" fill="white" fill-opacity="0.9"/>
<path d="M104.461 825.958C104.21 826.895 103.274 827.46 102.373 827.219C101.471 826.977 100.943 826.02 101.194 825.082C101.445 824.145 102.381 823.58 103.283 823.822C104.184 824.063 104.713 825.021 104.461 825.958Z" fill="white" fill-opacity="0.9"/>
<path d="M119.181 829.902C118.929 830.839 117.993 831.404 117.092 831.162C116.19 830.921 115.662 829.963 115.913 829.026C116.164 828.089 117.1 827.524 118.002 827.765C118.904 828.007 119.432 828.964 119.181 829.902Z" fill="white" fill-opacity="0.9"/>
<path d="M133.9 833.846C133.649 834.783 132.713 835.348 131.811 835.106C130.909 834.865 130.381 833.908 130.632 832.97C130.883 832.033 131.82 831.468 132.721 831.709C133.615 831.949 134.151 832.908 133.9 833.846Z" fill="white" fill-opacity="0.9"/>
<path d="M148.612 837.788C148.361 838.725 147.425 839.29 146.523 839.049C145.621 838.807 145.093 837.85 145.344 836.912C145.595 835.975 146.531 835.41 147.433 835.652C148.335 835.893 148.863 836.851 148.612 837.788Z" fill="white" fill-opacity="0.9"/>
<path d="M163.331 841.732C163.08 842.669 162.144 843.234 161.242 842.992C160.34 842.751 159.812 841.794 160.063 840.856C160.315 839.919 161.251 839.354 162.152 839.596C163.054 839.837 163.582 840.794 163.331 841.732Z" fill="white" fill-opacity="0.9"/>
<path d="M178.05 845.676C177.799 846.613 176.863 847.178 175.961 846.936C175.06 846.695 174.532 845.738 174.783 844.8C175.034 843.863 175.97 843.298 176.872 843.54C177.773 843.781 178.301 844.738 178.05 845.676Z" fill="white" fill-opacity="0.9"/>
<path d="M192.77 849.62C192.519 850.557 191.583 851.122 190.681 850.88C189.779 850.639 189.251 849.682 189.502 848.744C189.754 847.807 190.69 847.242 191.591 847.484C192.493 847.725 193.021 848.682 192.77 849.62Z" fill="white" fill-opacity="0.9"/>
<path d="M207.488 853.564C207.237 854.501 206.301 855.066 205.399 854.825C204.498 854.583 203.97 853.626 204.221 852.688C204.472 851.751 205.408 851.186 206.31 851.428C207.211 851.669 207.739 852.626 207.488 853.564Z" fill="white" fill-opacity="0.9"/>
</g>
</g>
<defs>
<linearGradient id="paint0_linear" x1="0.999957" y1="1010" x2="1227" y2="176" gradientUnits="userSpaceOnUse">
<stop offset="0.0526619" stop-color="#0D324D"/>
<stop offset="0.992752" stop-color="#7F5A83"/>
</linearGradient>
<linearGradient id="paint1_linear" x1="1106" y1="890.858" x2="1487.72" y2="890.858" gradientUnits="userSpaceOnUse">
<stop stop-color="#A8BFFF"/>
<stop offset="1" stop-color="#884D80"/>
</linearGradient>
<linearGradient id="paint2_linear" x1="-49.0552" y1="547.192" x2="332.66" y2="547.192" gradientUnits="userSpaceOnUse">
<stop stop-color="#A8BFFF"/>
<stop offset="1" stop-color="#884D80"/>
</linearGradient>
<clipPath id="clip0">
<rect width="1440" height="1024" fill="white"/>
</clipPath>
</defs>
</svg>
