<svg width="161" height="65" viewBox="0 0 161 65" fill="none" xmlns="http://www.w3.org/2000/svg">
<path d="M7.00781 47.3945C5.07812 46.8398 3.67188 46.1602 2.78906 45.3555C1.91406 44.543 1.47656 43.543 1.47656 42.3555C1.47656 41.0117 2.01172 39.9023 3.08203 39.0273C4.16016 38.1445 5.55859 37.7031 7.27734 37.7031C8.44922 37.7031 9.49219 37.9297 10.4062 38.3828C11.3281 38.8359 12.0391 39.4609 12.5391 40.2578C13.0469 41.0547 13.3008 41.9258 13.3008 42.8711H11.0391C11.0391 41.8398 10.7109 41.0312 10.0547 40.4453C9.39844 39.8516 8.47266 39.5547 7.27734 39.5547C6.16797 39.5547 5.30078 39.8008 4.67578 40.293C4.05859 40.7773 3.75 41.4531 3.75 42.3203C3.75 43.0156 4.04297 43.6055 4.62891 44.0898C5.22266 44.5664 6.22656 45.0039 7.64062 45.4023C9.0625 45.8008 10.1719 46.2422 10.9688 46.7266C11.7734 47.2031 12.3672 47.7617 12.75 48.4023C13.1406 49.043 13.3359 49.7969 13.3359 50.6641C13.3359 52.0469 12.7969 53.1562 11.7188 53.9922C10.6406 54.8203 9.19922 55.2344 7.39453 55.2344C6.22266 55.2344 5.12891 55.0117 4.11328 54.5664C3.09766 54.1133 2.3125 53.4961 1.75781 52.7148C1.21094 51.9336 0.9375 51.0469 0.9375 50.0547H3.19922C3.19922 51.0859 3.57812 51.9023 4.33594 52.5039C5.10156 53.0977 6.12109 53.3945 7.39453 53.3945C8.58203 53.3945 9.49219 53.1523 10.125 52.668C10.7578 52.1836 11.0742 51.5234 11.0742 50.6875C11.0742 49.8516 10.7812 49.207 10.1953 48.7539C9.60938 48.293 8.54688 47.8398 7.00781 47.3945ZM32.6123 50.5469H25.4639L23.8584 55H21.5381L28.0537 37.9375H30.0225L36.5498 55H34.2412L32.6123 50.5469ZM26.1436 48.6953H31.9444L29.0381 40.7148L26.1436 48.6953ZM50.1427 47.0664L48.0567 49.2344V55H45.8067V37.9375H48.0567V46.375L55.6387 37.9375H58.3575L51.6427 45.4727L58.8848 55H56.1895L50.1427 47.0664ZM79.8253 37.9375V49.5391C79.8175 51.1484 79.3097 52.4648 78.3019 53.4883C77.3019 54.5117 75.9425 55.0859 74.2237 55.2109L73.6261 55.2344C71.7589 55.2344 70.2706 54.7305 69.1612 53.7227C68.0519 52.7148 67.4894 51.3281 67.4737 49.5625V37.9375H69.7003V49.4922C69.7003 50.7266 70.0402 51.6875 70.7198 52.375C71.3995 53.0547 72.3683 53.3945 73.6261 53.3945C74.8995 53.3945 75.8722 53.0547 76.5441 52.375C77.2237 51.6953 77.5636 50.7383 77.5636 49.5039V37.9375H79.8253ZM96.5939 48.0977H92.5861V55H90.3244V37.9375H95.9728C97.8947 37.9375 99.3712 38.375 100.402 39.25C101.442 40.125 101.961 41.3984 101.961 43.0703C101.961 44.1328 101.672 45.0586 101.094 45.8477C100.524 46.6367 99.7267 47.2266 98.7033 47.6172L102.711 54.8594V55H100.297L96.5939 48.0977ZM92.5861 46.2578H96.0431C97.1603 46.2578 98.047 45.9688 98.7033 45.3906C99.3673 44.8125 99.6994 44.0391 99.6994 43.0703C99.6994 42.0156 99.383 41.207 98.7502 40.6445C98.1252 40.082 97.2189 39.7969 96.0314 39.7891H92.5861V46.2578ZM121.507 50.5469H114.359L112.753 55H110.433L116.948 37.9375H118.917L125.445 55H123.136L121.507 50.5469ZM115.038 48.6953H120.839L117.933 40.7148L115.038 48.6953Z" fill="white"/>
<path d="M52.1178 0.856259C52.1616 0.5401 52.0063 0.230582 51.7359 0.0954848C51.3482 -0.0982081 51.0667 -0.0174106 50.2394 0.525255C49.0307 1.31813 47.891 2.64149 47.1737 4.08536C46.8241 4.78897 46.3699 6.0831 46.304 6.56307C46.2283 7.11407 46.2187 7.11882 45.3455 7.02963C44.3363 6.92663 42.9848 7.01986 41.9313 7.26531C41.2966 7.41317 40.015 7.88858 39.4981 8.16782C38.9582 8.4595 38.0975 9.08232 37.7509 9.432C37.5094 9.67563 37.4814 9.73801 37.4814 10.0316C37.4814 10.3195 37.5081 10.3825 37.7014 10.5494C37.8713 10.6961 37.9866 10.7393 38.2068 10.7391C38.5364 10.7388 38.6582 10.6739 39.6007 9.99622C40.6517 9.24046 41.8069 8.77143 43.2429 8.51745C43.9425 8.39368 46.1454 8.40826 46.7961 8.54095C47.3741 8.6588 47.3902 8.64805 47.4527 8.10252C47.5615 7.15385 48.0204 5.7271 48.5362 4.73415C49.1228 3.60481 50.2496 2.3741 51.3362 1.67589C52.0243 1.23381 52.0724 1.18342 52.1178 0.856259Z" fill="url(#paint0_linear)"/>
<path d="M57.9593 4.08009C57.1334 2.48126 55.9578 1.2234 54.4815 0.358973C53.9671 0.0577235 53.6169 -0.0447549 53.4161 0.0471109C52.653 0.396084 52.7066 1.0939 53.5355 1.60316C54.9224 2.45541 56.0545 3.66367 56.7852 5.0716C57.2169 5.90347 57.7985 7.80505 57.7985 8.38476C57.7985 8.69942 57.8915 8.71869 58.7419 8.58041C59.76 8.41484 61.2275 8.40527 62.1449 8.55827C63.6611 8.81108 65.1053 9.44971 66.2357 10.3672C66.4961 10.5787 66.6023 10.6239 66.8308 10.6209C67.3159 10.6144 67.6314 10.3389 67.6348 9.91887C67.6378 9.54327 67.4356 9.28538 66.7433 8.78185C65.7149 8.03384 64.4859 7.51545 63.0483 7.22338C62.225 7.05606 60.3302 6.97695 59.5842 7.07878C59.3038 7.117 59.0818 7.11941 59.0369 7.08458C58.9952 7.05235 58.9412 6.88112 58.9169 6.70403C58.853 6.23864 58.3202 4.77856 57.9593 4.08009Z" fill="url(#paint1_linear)"/>
<path d="M52.138 6.77154C52.138 5.77267 52.1323 5.7297 51.9882 5.63217C51.7399 5.46407 51.3635 5.50085 51.1934 5.70978C51.0684 5.86337 51.0531 5.94423 51.0855 6.27947C51.1063 6.49438 51.1421 6.9192 51.1651 7.22358L51.207 7.77699L50.8711 7.89112C50.492 8.0199 50.4054 8.17824 50.5282 8.51836C50.5987 8.71381 50.6795 8.75919 51.0412 8.80659C51.1237 8.81733 51.2075 8.84207 51.2276 8.86147C51.2693 8.90177 51.3583 10.0006 51.4887 12.0884C51.5804 13.5569 51.6208 13.7343 51.8632 13.7343C52.1298 13.7343 52.138 13.6596 52.138 11.2146V8.85125H52.6434H53.1488V11.229V13.6069L53.3152 13.6801C53.4406 13.7353 53.5057 13.7342 53.5785 13.6758C53.697 13.5808 53.7279 13.305 53.8566 11.1951C54.0037 8.78224 53.9895 8.86831 54.2481 8.81811C54.6344 8.74311 54.6773 8.72052 54.7579 8.54955C54.9048 8.2382 54.696 7.90447 54.3108 7.83467L54.0761 7.79216L54.1205 7.13347C54.1448 6.77122 54.1824 6.30896 54.2039 6.10615C54.2422 5.74539 54.2386 5.7353 54.0362 5.63413C53.7535 5.49284 53.4462 5.50385 53.2836 5.66102C53.1604 5.78003 53.1488 5.87802 53.1488 6.80039V7.80954H52.6434H52.138V6.77154Z" fill="url(#paint2_linear)"/>
<path d="M38.259 12.4564C38.0502 11.8218 37.9288 11.5565 37.7876 11.4258C37.4172 11.0829 36.8292 11.1675 36.5995 11.5967C36.4584 11.8604 36.4654 12.0916 36.6334 12.7142C37.0429 14.231 38.036 15.8273 39.2738 16.9584C39.869 17.5023 41.0581 18.3716 41.5109 18.594C41.6887 18.6813 41.8499 18.7925 41.8693 18.8412C41.8886 18.8898 41.8302 19.0718 41.7397 19.2455C41.3754 19.9439 40.97 21.2757 40.8211 22.2633C40.7089 23.0064 40.7212 24.4201 40.8456 25.0954C40.905 25.4177 41.066 26.0018 41.2033 26.3936C41.4738 27.1648 41.7583 27.55 42.1228 27.6384C42.3805 27.7009 42.7352 27.5307 42.9094 27.2611C43.0811 26.9951 43.0582 26.7707 42.7848 26.0395C42.4335 25.0999 42.3354 24.5043 42.3342 23.305C42.3334 22.4156 42.3602 22.1144 42.4898 21.5548C42.6966 20.6628 42.9763 19.9113 43.4192 19.0581C43.6188 18.6736 43.782 18.3305 43.782 18.2956C43.782 18.2607 43.6532 18.1621 43.4956 18.0764C43.3381 17.9908 42.8956 17.7519 42.5122 17.5456C40.9554 16.7081 39.3914 15.1268 38.7352 13.727C38.628 13.4983 38.4137 12.9265 38.259 12.4564Z" fill="url(#paint3_linear)"/>
<path d="M45.3447 11.9113C45.3165 11.9113 44.8779 11.7501 44.3699 11.5532C43.8619 11.3562 43.4053 11.1951 43.3551 11.1951C43.1139 11.1951 42.8378 11.7968 42.9697 12.0349C43.0175 12.1212 43.3398 12.2563 44.0003 12.4672C44.5288 12.6358 44.9841 12.7937 45.0119 12.818C45.0494 12.8506 44.837 13.6169 44.7631 13.7157C44.7573 13.7234 44.2942 13.5843 43.7339 13.4064C43.1736 13.2286 42.666 13.1013 42.6059 13.1236C42.4486 13.1819 42.2995 13.4949 42.2995 13.7669C42.2995 14.0506 42.3513 14.0754 43.5875 14.3842L44.4375 14.5965L44.406 14.866C44.3694 15.1806 44.5145 15.3964 44.808 15.4634C44.9547 15.497 45.0292 15.4676 45.1786 15.3172C45.2815 15.2137 45.3987 15.0724 45.4391 15.0032C45.5214 14.8624 45.3705 14.8307 48.8627 15.7224C50.2929 16.0877 50.341 16.0954 50.432 15.9752C50.6726 15.6573 50.6343 15.6379 48.1622 14.8299C46.8835 14.412 45.8156 14.0605 45.7889 14.0487C45.7009 14.0097 46.0557 13.1805 46.1571 13.1881C46.2097 13.1921 47.2748 13.5244 48.5238 13.9267C50.8844 14.6869 50.9281 14.695 51.0115 14.3869C51.0603 14.2067 50.9162 14.1159 50.049 13.7799C49.6228 13.6148 48.6676 13.2409 47.9263 12.949C47.1851 12.6571 46.5373 12.4024 46.487 12.383C46.4187 12.3567 46.4064 12.2677 46.4385 12.0338C46.4745 11.7719 46.4592 11.6983 46.3465 11.5894C46.053 11.3058 45.6905 11.3608 45.4994 11.7179C45.4424 11.8242 45.3728 11.9113 45.3447 11.9113Z" fill="url(#paint4_linear)"/>
<path d="M62.1873 12.0953C62.2698 11.9695 62.2587 11.8062 62.1507 11.5563C61.984 11.1711 61.898 11.1693 60.9292 11.5313C59.8162 11.9471 59.7764 11.9559 59.7245 11.7977C59.7017 11.7283 59.6084 11.6038 59.5173 11.5211C59.3776 11.3943 59.3181 11.3799 59.1379 11.4299C58.8138 11.5197 58.6577 11.7592 58.741 12.0389C58.7778 12.1627 58.7845 12.2868 58.7558 12.3145C58.7063 12.3624 56.9999 13.023 55.1704 13.7025C54.3809 13.9958 54.0922 14.1445 54.0922 14.258C54.0922 14.2843 54.1467 14.3708 54.2132 14.4501L54.3341 14.5945L56.6868 13.8719C57.9808 13.4745 59.0595 13.1711 59.084 13.1977C59.1085 13.2242 59.1904 13.4268 59.266 13.6478L59.4034 14.0497L58.2135 14.4172C54.6323 15.5233 54.6667 15.511 54.6447 15.6933C54.5986 16.0764 54.662 16.0707 57.1578 15.4677C58.436 15.1589 59.5239 14.9062 59.5753 14.9062C59.6268 14.9062 59.7072 14.9953 59.7538 15.1041C59.8475 15.3226 60.0574 15.4922 60.2343 15.4922C60.2973 15.4922 60.4455 15.4136 60.5636 15.3175C60.7579 15.1597 60.7748 15.1172 60.7405 14.8749L60.7024 14.6068L61.6259 14.3909C62.1338 14.2722 62.6175 14.1338 62.7009 14.0834C63.0068 13.8983 62.8018 13.1483 62.4453 13.1483C62.3749 13.1483 61.8895 13.2827 61.3666 13.4469C60.8436 13.6111 60.4074 13.7356 60.3971 13.7236C60.3499 13.6682 60.0935 12.8624 60.1161 12.8406C60.1301 12.8271 60.5892 12.6732 61.1362 12.4987C61.6831 12.3243 62.1562 12.1427 62.1873 12.0953Z" fill="url(#paint5_linear)"/>
<path d="M68.3848 12.6984C68.5979 11.8966 68.5203 11.4984 68.1109 11.2939C67.7753 11.1262 67.4531 11.1868 67.1822 11.4687C67.0934 11.5613 66.89 12.0419 66.6901 12.6316C66.313 13.7445 65.9712 14.3807 65.3069 15.2059C64.4592 16.259 63.3484 17.131 61.9457 17.8445C61.5863 18.0272 61.2775 18.214 61.2594 18.2596C61.2414 18.3051 61.3984 18.6735 61.6085 19.0782C62.0232 19.877 62.3623 20.806 62.5574 21.6773C62.6495 22.0888 62.6813 22.5062 62.6813 23.305C62.6813 24.5202 62.5879 25.0646 62.197 26.1277C61.918 26.8868 61.9272 27.1464 62.2432 27.4216C62.5111 27.655 62.714 27.6976 63.0025 27.5811C63.3413 27.4444 63.542 27.1435 63.8142 26.365C64.1975 25.2683 64.234 25.0274 64.2333 23.598C64.2328 22.4726 64.2114 22.203 64.0752 21.6122C63.8711 20.7273 63.6394 20.0233 63.35 19.4099C63.2223 19.139 63.1312 18.8834 63.1477 18.8418C63.1642 18.8003 63.3396 18.678 63.5375 18.5701C64.0829 18.2727 65.2108 17.4418 65.7907 16.9103C66.9787 15.8213 67.9918 14.1763 68.3848 12.6984Z" fill="url(#paint6_linear)"/>
<path d="M57.6867 20.1147C57.6762 20.1147 56.983 19.3164 56.1462 18.3406C55.3094 17.3648 54.5717 16.5302 54.507 16.4859C54.4116 16.4207 54.361 16.4245 54.2407 16.5059C54.1591 16.5611 54.0932 16.6559 54.0945 16.7166C54.0957 16.7772 54.7315 17.6618 55.5073 18.6824C56.2832 19.7029 56.919 20.5704 56.9202 20.6099C56.9215 20.6495 56.7562 20.8021 56.553 20.949L56.1835 21.2159L55.7249 20.6165C55.4726 20.2868 54.8323 19.4396 54.3019 18.7338C53.7715 18.028 53.2941 17.4157 53.2409 17.373C53.0958 17.2567 52.7927 17.4281 52.828 17.6066C52.8426 17.6801 53.4374 18.6287 54.1499 19.7144L55.4453 21.6884L55.2067 21.9435C54.917 22.2533 54.911 22.3482 55.1652 22.5938C55.3831 22.8042 55.5247 22.8257 55.7769 22.6865C55.8695 22.6353 55.9655 22.5924 55.9902 22.5911C56.0148 22.5898 56.2547 22.9252 56.5232 23.3364C57.2386 24.4321 57.2822 24.4644 57.7028 24.2132C57.9221 24.0823 58.0445 23.8795 58.0093 23.7053C57.9996 23.6568 57.7878 23.3492 57.5387 23.0216C57.2896 22.6941 57.0182 22.3328 56.9355 22.2189L56.7851 22.0118L57.1698 21.7456C57.3815 21.5992 57.5767 21.4873 57.6036 21.497C57.6306 21.5067 57.894 21.8368 58.189 22.2307C58.8889 23.1653 58.948 23.216 59.2133 23.1098C59.4144 23.0293 59.7527 22.7007 59.7527 22.5857C59.7527 22.5538 59.4495 22.1757 59.0788 21.7456C58.7082 21.3155 58.405 20.9453 58.405 20.9229C58.405 20.9006 58.4808 20.7952 58.5734 20.6889C58.7866 20.4441 58.7876 20.2181 58.5765 20.0141C58.3764 19.8208 58.3394 19.819 57.9848 19.9845C57.8313 20.0561 57.6972 20.1147 57.6867 20.1147Z" fill="url(#paint7_linear)"/>
<path d="M51.1946 16.8132C51.1946 16.7781 51.1391 16.7009 51.0713 16.6416C50.9369 16.524 50.8616 16.5103 50.7536 16.5837C50.7149 16.61 50.201 17.1882 49.6117 17.8686C49.0224 18.5489 48.3196 19.3587 48.0498 19.668L47.5593 20.2304L47.2876 20.1005C46.9456 19.937 46.7174 19.9856 46.5745 20.2526C46.454 20.4777 46.5181 20.7284 46.7475 20.9289C46.8647 21.0314 46.8442 21.0664 46.2953 21.6987C45.979 22.0629 45.6751 22.4266 45.6197 22.507C45.479 22.7114 45.5612 22.9573 45.8223 23.113C46.2155 23.3476 46.3153 23.2864 47.0127 22.3838L47.649 21.5602L48.042 21.828C48.2582 21.9754 48.4219 22.1291 48.4057 22.1696C48.3896 22.2103 48.1159 22.5883 47.7976 23.0096C47.2072 23.7912 47.1282 23.9893 47.3367 24.1659C47.5338 24.3329 47.8781 24.4782 47.984 24.4389C48.0389 24.4186 48.3329 24.0232 48.6371 23.5605C48.9414 23.0977 49.2133 22.719 49.2414 22.719C49.2694 22.719 49.3792 22.7628 49.4854 22.8163C49.7559 22.9526 49.8301 22.9405 50.0542 22.724C50.3113 22.4756 50.3029 22.3002 50.0208 22.0276L49.7904 21.805L51.0717 19.8694C51.7764 18.8047 52.3828 17.8799 52.4193 17.8143C52.4988 17.6714 52.3222 17.4454 52.1311 17.4454C52.0507 17.4454 51.5643 18.0364 50.6758 19.2137C49.9419 20.1862 49.2782 21.0552 49.2009 21.1447L49.0604 21.3074L48.6813 21.0529C48.4727 20.9129 48.3009 20.7766 48.2995 20.7501C48.2971 20.7051 48.595 20.3047 50.4729 17.8285C50.8698 17.3052 51.1946 16.8483 51.1946 16.8132Z" fill="url(#paint8_linear)"/>
<path d="M57.8996 27.2536C56.2409 26.8455 54.7858 26.0425 53.4648 24.8061C53.0419 24.4102 52.6825 24.0863 52.6661 24.0863C52.6498 24.0863 52.3783 24.3279 52.0628 24.6234C50.7066 25.8932 48.9889 26.8068 47.2524 27.1819C46.8575 27.2672 46.3847 27.3012 45.4844 27.3092C44.1409 27.321 44.0968 27.3329 43.8762 27.7451C43.7485 27.9837 43.7582 28.182 43.9091 28.4211C44.1048 28.7311 44.3903 28.8241 45.2982 28.8734C46.5835 28.9433 47.9044 28.6922 49.3414 28.1048C50.1874 27.759 51.436 27.0038 52.0753 26.4513C52.7045 25.9074 52.6008 25.9095 53.1903 26.4287C54.1191 27.2467 55.6837 28.1655 56.7374 28.5116C57.8188 28.8669 58.6639 28.9979 59.8875 28.9999C61.1531 29.0021 61.3348 28.9517 61.5356 28.5426C61.6912 28.2259 61.6279 27.9194 61.3625 27.7036C61.0968 27.4876 61.0682 27.4831 59.719 27.4487C58.7821 27.4247 58.4507 27.3892 57.8996 27.2536Z" fill="url(#paint9_linear)"/>
<path d="M4.23047 17.3203V24H1.98047V6.9375H8.27344C10.1406 6.9375 11.6016 7.41406 12.6562 8.36719C13.7188 9.32031 14.25 10.582 14.25 12.1523C14.25 13.8086 13.7305 15.0859 12.6914 15.9844C11.6602 16.875 10.1797 17.3203 8.25 17.3203H4.23047ZM4.23047 15.4805H8.27344C9.47656 15.4805 10.3984 15.1992 11.0391 14.6367C11.6797 14.0664 12 13.2461 12 12.1758C12 11.1602 11.6797 10.3477 11.0391 9.73828C10.3984 9.12891 9.51953 8.8125 8.40234 8.78906H4.23047V15.4805ZM24.0989 17.0977H20.0911V24H17.8294V6.9375H23.4778C25.3997 6.9375 26.8763 7.375 27.9075 8.25C28.9466 9.125 29.4661 10.3984 29.4661 12.0703C29.4661 13.1328 29.177 14.0586 28.5989 14.8477C28.0286 15.6367 27.2317 16.2266 26.2083 16.6172L30.2161 23.8594V24H27.802L24.0989 17.0977ZM20.0911 15.2578H23.5481C24.6653 15.2578 25.552 14.9688 26.2083 14.3906C26.8723 13.8125 27.2044 13.0391 27.2044 12.0703C27.2044 11.0156 26.888 10.207 26.2552 9.64453C25.6302 9.08203 24.7239 8.79688 23.5364 8.78906H20.0911V15.2578ZM80.5373 6.9375H82.7991V19.0195C82.7991 20.6523 82.3069 21.9297 81.3225 22.8516C80.3459 23.7734 79.0413 24.2344 77.4084 24.2344C75.7131 24.2344 74.3928 23.8008 73.4475 22.9336C72.5022 22.0664 72.0295 20.8516 72.0295 19.2891H74.2795C74.2795 20.2656 74.5452 21.0273 75.0764 21.5742C75.6155 22.1211 76.3928 22.3945 77.4084 22.3945C78.3381 22.3945 79.0881 22.1016 79.6584 21.5156C80.2366 20.9297 80.5295 20.1094 80.5373 19.0547V6.9375ZM96.9956 16.1133H89.6011V22.1602H98.1909V24H87.3511V6.9375H98.0738V8.78906H89.6011V14.2734H96.9956V16.1133ZM114.262 18.5859C114.052 20.3906 113.384 21.7852 112.259 22.7695C111.141 23.7461 109.653 24.2344 107.794 24.2344C105.778 24.2344 104.161 23.5117 102.942 22.0664C101.731 20.6211 101.126 18.6875 101.126 16.2656V14.625C101.126 13.0391 101.407 11.6445 101.97 10.4414C102.54 9.23828 103.345 8.31641 104.384 7.67578C105.423 7.02734 106.626 6.70312 107.993 6.70312C109.805 6.70312 111.259 7.21094 112.352 8.22656C113.446 9.23438 114.083 10.6328 114.262 12.4219H112.001C111.805 11.0625 111.38 10.0781 110.723 9.46875C110.075 8.85938 109.165 8.55469 107.993 8.55469C106.555 8.55469 105.427 9.08594 104.606 10.1484C103.794 11.2109 103.387 12.7227 103.387 14.6836V16.3359C103.387 18.1875 103.774 19.6602 104.548 20.7539C105.321 21.8477 106.403 22.3945 107.794 22.3945C109.044 22.3945 110.001 22.1133 110.665 21.5508C111.337 20.9805 111.782 19.9922 112.001 18.5859H114.262ZM129.502 8.78906H124.018V24H121.779V8.78906H116.307V6.9375H129.502V8.78906Z" fill="white"/>
<defs>
<linearGradient id="paint0_linear" x1="36.5" y1="14.5" x2="68.5" y2="14.5" gradientUnits="userSpaceOnUse">
<stop stop-color="#84FAB0"/>
<stop offset="1" stop-color="#8FD3F4"/>
</linearGradient>
<linearGradient id="paint1_linear" x1="36.5" y1="14.5" x2="68.5" y2="14.5" gradientUnits="userSpaceOnUse">
<stop stop-color="#84FAB0"/>
<stop offset="1" stop-color="#8FD3F4"/>
</linearGradient>
<linearGradient id="paint2_linear" x1="36.5" y1="14.5" x2="68.5" y2="14.5" gradientUnits="userSpaceOnUse">
<stop stop-color="#84FAB0"/>
<stop offset="1" stop-color="#8FD3F4"/>
</linearGradient>
<linearGradient id="paint3_linear" x1="36.5" y1="14.5" x2="68.5" y2="14.5" gradientUnits="userSpaceOnUse">
<stop stop-color="#84FAB0"/>
<stop offset="1" stop-color="#8FD3F4"/>
</linearGradient>
<linearGradient id="paint4_linear" x1="36.5" y1="14.5" x2="68.5" y2="14.5" gradientUnits="userSpaceOnUse">
<stop stop-color="#84FAB0"/>
<stop offset="1" stop-color="#8FD3F4"/>
</linearGradient>
<linearGradient id="paint5_linear" x1="36.5" y1="14.5" x2="68.5" y2="14.5" gradientUnits="userSpaceOnUse">
<stop stop-color="#84FAB0"/>
<stop offset="1" stop-color="#8FD3F4"/>
</linearGradient>
<linearGradient id="paint6_linear" x1="36.5" y1="14.5" x2="68.5" y2="14.5" gradientUnits="userSpaceOnUse">
<stop stop-color="#84FAB0"/>
<stop offset="1" stop-color="#8FD3F4"/>
</linearGradient>
<linearGradient id="paint7_linear" x1="36.5" y1="14.5" x2="68.5" y2="14.5" gradientUnits="userSpaceOnUse">
<stop stop-color="#84FAB0"/>
<stop offset="1" stop-color="#8FD3F4"/>
</linearGradient>
<linearGradient id="paint8_linear" x1="36.5" y1="14.5" x2="68.5" y2="14.5" gradientUnits="userSpaceOnUse">
<stop stop-color="#84FAB0"/>
<stop offset="1" stop-color="#8FD3F4"/>
</linearGradient>
<linearGradient id="paint9_linear" x1="36.5" y1="14.5" x2="68.5" y2="14.5" gradientUnits="userSpaceOnUse">
<stop stop-color="#84FAB0"/>
<stop offset="1" stop-color="#8FD3F4"/>
</linearGradient>
</defs>
</svg>
